<svg width="103" height="74" viewBox="0 0 103 74" fill="none" xmlns="http://www.w3.org/2000/svg">
<path d="M94.273 26.4432C94.4412 26.6439 94.5702 26.879 94.6523 27.1346C94.7345 27.3901 94.768 27.6608 94.7509 27.9306C94.7134 28.4708 94.5612 28.9944 94.3059 29.461C93.839 30.3756 92.9656 31.1186 92.1278 31.644C91.6472 30.608 91.9438 29.3011 92.1278 28.6499C92.4259 27.6139 93.5465 25.9519 94.2675 26.4432" fill="#EBEBEB"/>
<path d="M92.3965 33.6127C92.4499 33.3159 92.5753 33.0397 92.7598 32.812C92.9443 32.5843 93.1814 32.4132 93.4471 32.3162C93.7137 32.2234 93.9947 32.1887 94.2739 32.2141C94.5531 32.2395 94.8247 32.3245 95.0731 32.4642C95.3038 32.5885 95.5318 32.7779 95.5881 33.0562C95.6063 33.1852 95.5925 33.317 95.5481 33.4384C95.5037 33.5598 95.4303 33.6664 95.3354 33.7473C95.143 33.9074 94.9145 34.0096 94.6735 34.0433C93.8495 34.1913 93.0406 34.1795 92.3965 33.6171" fill="#EBEBEB"/>
<path d="M90.3145 36.1271C90.3434 36.0624 90.3774 36.0005 90.4161 35.9421L90.71 35.4507C90.9627 35.0423 91.3115 34.4517 91.8691 33.9707C92.336 33.5538 92.8979 33.2789 93.4965 33.1745C93.6784 33.1457 93.8628 33.1408 94.0458 33.1597C94.0951 33.1639 94.1442 33.1714 94.1927 33.1819C94.2271 33.1819 94.2436 33.1923 94.2436 33.1952C93.9978 33.1793 93.7512 33.1902 93.5075 33.2278C92.9202 33.3485 92.3711 33.6281 91.9116 34.0403C91.3623 34.5065 91.0135 35.0852 90.7512 35.4863C90.6207 35.689 90.515 35.8533 90.4381 35.9643C90.4019 36.0228 90.3605 36.0774 90.3145 36.1271Z" fill="#E0E0E0"/>
<path d="M93.5227 27.7944C93.5167 27.8252 93.5084 27.8554 93.4979 27.8847L93.4183 28.1378C93.3469 28.3583 93.2398 28.6736 93.1052 29.0628C92.8305 29.8413 92.4473 30.9113 91.9955 32.082C91.5437 33.2527 91.1125 34.302 90.7897 35.0598C90.629 35.4372 90.4958 35.7406 90.4024 35.9478C90.3571 36.0454 90.32 36.1254 90.2926 36.1875C90.2808 36.216 90.2665 36.2433 90.25 36.2689C90.2565 36.2387 90.2662 36.2094 90.2788 36.1816C90.3049 36.118 90.3365 36.0336 90.3777 35.9344L90.7444 35.0346C91.0548 34.2739 91.4791 33.2216 91.931 32.0509C92.3828 30.8802 92.7769 29.8146 93.0585 29.0406L93.3922 28.1245C93.4306 28.0238 93.4609 27.941 93.4856 27.8773C93.495 27.8483 93.5075 27.8205 93.5227 27.7944Z" fill="#E0E0E0"/>
<path d="M90.8779 33.623C91.0096 33.0013 91.0018 32.3548 90.8551 31.737C90.7085 31.1193 90.4272 30.5481 90.0347 30.071C89.8342 29.8297 89.5389 29.6018 89.256 29.7113C88.9731 29.8209 88.8824 30.2012 88.877 30.5253C88.8763 31.2018 89.0614 31.8634 89.4089 32.4267C89.7564 32.99 90.2508 33.4299 90.8298 33.6911" fill="#EBEBEB"/>
<path d="M89.8158 31.0371C89.8644 31.081 89.9082 31.1306 89.9463 31.1851C89.996 31.2422 90.0419 31.3031 90.0836 31.3671C90.1344 31.4426 90.1976 31.5225 90.2539 31.6232C90.3192 31.7292 90.3792 31.8389 90.4338 31.9517C90.499 32.0797 90.5572 32.2117 90.6083 32.3469C90.7254 32.6583 90.8093 32.983 90.8582 33.3148C90.9023 33.6472 90.9106 33.9839 90.8829 34.3183C90.8704 34.464 90.8498 34.6088 90.8211 34.7519C90.7984 34.8771 90.7686 35.0007 90.7318 35.1219C90.7043 35.2224 90.6717 35.3212 90.6343 35.4179C90.6088 35.4921 90.5785 35.5643 90.5437 35.634C90.5195 35.6962 90.4896 35.7557 90.4544 35.8116C90.4393 35.8116 90.567 35.5496 90.6852 35.1056C90.7174 34.9854 90.7435 34.8634 90.7634 34.7401C90.7889 34.5987 90.8073 34.4559 90.8184 34.3123C90.8425 33.9832 90.8328 33.6521 90.7895 33.3252C90.7406 32.9998 90.6601 32.6808 90.5492 32.3735C90.4943 32.2329 90.4434 32.0997 90.383 31.9799C90.3311 31.8673 90.2738 31.7576 90.2114 31.6513C89.9806 31.2576 89.7966 31.0475 89.8158 31.0371Z" fill="#E0E0E0"/>
<path d="M8.93444 17.2185C8.93444 17.2185 7.67097 17.6625 8.89598 20.5781C10.121 23.4937 10.9958 24.9559 10.9958 24.9559C10.9958 24.9559 11.2059 25.6293 10.6841 25.7063C10.1622 25.7832 9.03607 25.5301 8.77239 26.2006C8.49772 26.8947 8.95092 27.5859 9.89165 28.2208C10.8324 28.8557 12.8471 30.3253 13.0283 30.4585C13.2096 30.5917 13.3772 30.9025 13.0283 31.0209C12.6795 31.1393 10.1073 31.2933 10.2501 32.6045C10.3929 33.9158 13.2852 35.2241 13.5955 35.3721C13.9059 35.5201 13.9787 35.6681 13.9444 35.8576C13.91 36.047 13.0407 36.0056 12.3101 36.0885C11.5795 36.1713 10.7459 36.3933 10.8873 37.1422C11.0288 37.8911 12.7029 39.5354 16.9135 40.1955L18.8829 40.3642L20.0337 38.6222C22.2887 34.7343 22.2063 32.2952 21.7682 31.6943C21.3301 31.0935 20.6284 31.6322 20.1024 32.1827C19.5764 32.7333 19.0367 33.4703 18.8829 33.3771C18.7291 33.2839 18.6673 33.1299 18.7634 32.7762C18.8595 32.4225 19.8085 29.2035 18.9721 28.2385C18.1358 27.2736 16.3628 29.2864 16.0552 29.4995C15.7475 29.7126 15.6363 29.3663 15.6583 29.1339C15.6803 28.9016 15.9412 26.2923 16.1005 25.1083C16.2598 23.9243 16.0607 23.1103 15.3946 22.8883C14.7519 22.6693 14.1998 23.7615 13.8084 24.1404C13.417 24.5193 13.0764 23.911 13.0764 23.911C13.0764 23.911 12.6081 22.2505 11.3337 19.3556C10.0592 16.4607 8.90697 17.2407 8.90697 17.2407" fill="#EBEBEB"/>
<path d="M18.9658 40.8658C18.0374 38.7346 16.4471 34.9192 15.0655 31.6513C13.684 28.3835 12.4315 25.4264 11.5127 23.2923L10.4237 20.7644L10.1284 20.0777L10.0529 19.8972C10.0425 19.8761 10.0333 19.8543 10.0254 19.832C10.0254 19.832 10.0364 19.8513 10.0556 19.8912L10.1366 20.0688C10.2067 20.2272 10.3097 20.4566 10.4429 20.7511C10.7079 21.3431 11.0856 22.203 11.5498 23.2671C12.4782 25.3968 13.7375 28.3509 15.1205 31.6188C16.5034 34.8866 18.0869 38.7109 19.0056 40.848" fill="#E0E0E0"/>
<path d="M10.3398 26.6226C10.387 26.6341 10.4329 26.6504 10.4772 26.6714C10.5623 26.7054 10.6859 26.7602 10.837 26.8283C11.1391 26.9659 11.5525 27.1672 12.0057 27.3981L13.162 27.9901L13.5136 28.1677C13.5578 28.1869 13.6001 28.2107 13.64 28.2387C13.5925 28.2292 13.5464 28.2133 13.5026 28.1914C13.4161 28.1573 13.2939 28.1026 13.1428 28.033C12.8407 27.885 12.4301 27.6852 11.9782 27.4543L10.8178 26.8623L10.4662 26.6862C10.422 26.6702 10.3796 26.6488 10.3398 26.6226Z" fill="#E0E0E0"/>
<path d="M13.7798 28.1203C13.7647 28.1203 14.1121 27.176 14.5557 26.029C14.9993 24.882 15.3797 23.957 15.3879 23.957C15.3962 23.957 15.057 24.9013 14.612 26.0498C14.1671 27.1982 13.7963 28.1203 13.7798 28.1203Z" fill="#E0E0E0"/>
<path d="M15.6914 33.2335C15.716 33.1884 15.745 33.1462 15.7779 33.1077C15.8438 33.0174 15.9276 32.9064 16.0265 32.7747C16.2352 32.4935 16.5236 32.1028 16.8272 31.6602C17.1307 31.2177 17.393 30.8092 17.5811 30.5103L17.8036 30.1566C17.8288 30.1119 17.8578 30.0697 17.8901 30.0308C17.8736 30.0802 17.851 30.127 17.8228 30.1699C17.7761 30.2587 17.7061 30.383 17.6168 30.5354C17.4383 30.8418 17.1815 31.2577 16.8752 31.7002C16.569 32.1427 16.2778 32.5305 16.0595 32.8043C15.9496 32.9404 15.8603 33.05 15.7958 33.124C15.7653 33.1649 15.7302 33.2017 15.6914 33.2335Z" fill="#E0E0E0"/>
<path d="M12.3047 32.6253C12.3506 32.622 12.3968 32.625 12.442 32.6342L12.806 32.683C13.1122 32.7289 13.5352 32.7955 14.0021 32.8725C14.4691 32.9494 14.8907 33.0205 15.1956 33.0797L15.5567 33.1507C15.6014 33.1563 15.6452 33.1677 15.6872 33.1847C15.6413 33.188 15.5951 33.185 15.5499 33.1759L15.1873 33.127C14.8797 33.0811 14.4567 33.0145 13.9898 32.9376C13.5228 32.8606 13.1012 32.7896 12.7963 32.7304L12.4365 32.6593C12.3915 32.6533 12.3473 32.6419 12.3047 32.6253Z" fill="#E0E0E0"/>
<path d="M13.459 37.3777C13.5165 37.3762 13.574 37.3806 13.6307 37.3911L14.0976 37.4532C14.4904 37.508 15.0328 37.5879 15.6316 37.6811C16.2304 37.7744 16.7728 37.8617 17.1642 37.9298L17.6284 38.0112C17.6856 38.0196 17.7421 38.033 17.7973 38.0511C17.7394 38.0527 17.6815 38.0483 17.6243 38.0378L17.1587 37.9757C16.766 37.9209 16.2221 37.8395 15.6234 37.7463C15.0246 37.653 14.4821 37.5657 14.0907 37.4991L13.6279 37.4162C13.5706 37.4091 13.5141 37.3962 13.459 37.3777Z" fill="#E0E0E0"/>
<path d="M17.6973 38.0038C17.7279 37.9458 17.7633 37.8909 17.803 37.8396C17.8799 37.7271 17.9815 37.5821 18.1038 37.4059C18.3578 37.0389 18.7067 36.5313 19.0775 35.9585C19.4483 35.3857 19.7724 34.8589 20.0031 34.4785L20.2778 34.0241C20.3089 33.9669 20.3442 33.9124 20.3835 33.8613C20.3595 33.9226 20.3305 33.9816 20.297 34.0374C20.2379 34.1484 20.15 34.3083 20.0388 34.5022C19.8163 34.8929 19.4977 35.4257 19.1255 35.9984C18.7534 36.5712 18.4004 37.0774 18.1367 37.437C17.9994 37.6161 17.8964 37.7611 17.8195 37.8588C17.7832 37.9113 17.7423 37.9599 17.6973 38.0038Z" fill="#E0E0E0"/>
<path d="M49.7786 34.7284C46.2601 32.8207 44.9362 28.4666 44.5242 24.4321C44.4555 23.7587 44.2921 23.0631 44.5091 22.4296C44.7261 21.7962 45.3619 21.2856 45.9566 21.4824C46.4496 21.6438 46.7284 22.1914 47.0552 22.6294C47.4859 23.2147 48.0616 23.6565 48.7156 23.9037C49.1413 24.0636 49.6495 24.1228 50.0093 23.8297C50.5023 23.4272 50.4584 22.6191 50.365 21.9531C50.191 20.7109 50.0171 19.4696 49.8431 18.2294C49.7497 17.5634 49.6577 16.8841 49.7648 16.221C49.8719 15.558 50.218 14.9053 50.7825 14.636C51.3469 14.3666 52.1242 14.6182 52.3357 15.2516C52.4236 15.5151 52.4099 15.8052 52.4648 16.079C52.5197 16.3528 52.679 16.6399 52.9331 16.6798C53.1872 16.7198 53.4138 16.4919 53.5717 16.2669C54.121 15.4958 54.4369 14.5605 54.7267 13.6355C55.0165 12.7105 55.2897 11.7662 55.7704 10.9419C56.2511 10.1175 56.9748 9.41156 57.8524 9.21916C58.7299 9.02676 59.7545 9.46928 60.1033 10.3721C60.4521 11.2749 60.0731 12.3094 59.6212 13.156C58.9541 14.4134 58.1215 15.5599 57.1492 16.56C56.9735 16.739 56.7839 16.9329 56.7372 17.1919C56.6631 17.6566 57.1122 18.037 57.5393 18.1199C58.0227 18.2131 58.5157 18.0844 59.006 18.0696C59.4963 18.0548 60.0497 18.2042 60.2983 18.6616C60.643 19.3039 60.2104 20.1001 59.749 20.6492C58.833 21.7482 57.7483 22.6689 56.5422 23.3709C56.111 23.621 55.6537 23.8534 55.3323 24.2589C55.011 24.6644 54.8709 25.2949 55.1552 25.7286C55.4394 26.1622 56.0286 26.2258 56.4928 26.0556C56.957 25.8854 57.3456 25.5406 57.7755 25.286C58.5789 24.808 59.6844 24.694 60.3354 25.4059C60.7625 25.8706 60.8916 26.5899 60.7941 27.2396C60.6966 27.8894 60.4013 28.4784 60.0772 29.0319C58.9456 30.9663 57.3882 32.6254 55.515 33.6688C53.6417 34.7122 51.8427 35.1961 49.7799 34.7299" fill="#F5F5F5"/>
<path d="M50.4004 32.0616C50.7261 29.7785 51.1727 27.5173 51.738 25.2891L52.1747 23.5324C52.3189 22.9566 52.4618 22.3854 52.6334 21.8363C52.9649 20.782 53.3505 19.7483 53.7884 18.7401C54.2004 17.7752 54.622 16.8753 55.0244 16.0362C55.4268 15.197 55.8182 14.4244 56.2 13.7362C56.799 12.647 57.4772 11.6107 58.2284 10.6371C58.4934 10.2923 58.7077 10.0318 58.8546 9.85864L59.0222 9.6618C59.0405 9.63818 59.0607 9.61639 59.0826 9.59668C59.0682 9.62281 59.0512 9.64714 59.0318 9.6692L58.8711 9.87492C58.7338 10.054 58.5223 10.3189 58.2627 10.6682C57.5271 11.6492 56.8605 12.6881 56.2686 13.7762C55.891 14.4659 55.5064 15.2399 55.1082 16.0791C54.7099 16.9182 54.291 17.8196 53.8832 18.783C53.4483 19.7907 53.065 20.8233 52.7351 21.8762C52.5648 22.4238 52.4233 22.9892 52.2791 23.5664C52.1349 24.1436 51.9921 24.7297 51.8451 25.3217C51.2802 27.5454 50.8313 29.8015 50.5006 32.0794" fill="#E0E0E0"/>
<path d="M52.6663 21.8271C52.624 21.7395 52.5909 21.6472 52.5674 21.5518C52.5111 21.3727 52.43 21.1078 52.3476 20.7866C52.1719 20.1354 51.9562 19.2297 51.7228 18.2292C51.4893 17.2287 51.2613 16.3274 51.0773 15.6821C50.9853 15.3595 50.9084 15.099 50.8535 14.9199C50.8195 14.8283 50.7946 14.733 50.7793 14.6357C50.8271 14.7195 50.8658 14.8089 50.8947 14.9021C50.9633 15.0768 51.0512 15.3343 51.1542 15.6555C51.3588 16.2948 51.5992 17.1961 51.834 18.1981L52.4259 20.7629C52.4983 21.0708 52.5601 21.3293 52.6113 21.5385C52.6398 21.6321 52.6582 21.7289 52.6663 21.8271Z" fill="#E0E0E0"/>
<path d="M60.402 18.9873C60.3009 19.0279 60.1966 19.0581 60.0903 19.0776C59.8897 19.1294 59.5972 19.2019 59.2402 19.304C58.5233 19.5023 57.5413 19.8131 56.4729 20.2068C55.4044 20.6005 54.4514 21.0075 53.7702 21.3198C53.4282 21.4678 53.1549 21.6069 52.9654 21.6972C52.8697 21.7508 52.7694 21.7944 52.666 21.8274C52.7523 21.7601 52.8443 21.7016 52.9407 21.6528C53.1247 21.5492 53.3939 21.4041 53.7317 21.2384C54.4074 20.9039 55.3591 20.4865 56.4303 20.0884C57.3442 19.7469 58.2738 19.4564 59.2154 19.2182C59.5766 19.1264 59.8719 19.0702 60.0765 19.0302C60.1835 19.0046 60.2925 18.9902 60.402 18.9873Z" fill="#E0E0E0"/>
<path d="M50.4792 31.8883C50.4524 31.8602 50.4293 31.8283 50.4105 31.7935C50.3624 31.7151 50.3048 31.6189 50.2333 31.4975C50.0795 31.2459 49.8667 30.8759 49.6098 30.4157C49.0948 29.4936 48.4205 28.1957 47.6941 26.7527C46.9676 25.3097 46.3042 24.0132 45.8071 23.0882L45.2166 21.9871L45.0573 21.6911C45.0364 21.657 45.0198 21.6202 45.0078 21.5815C45.0348 21.6099 45.0579 21.6423 45.0765 21.6777L45.2536 21.9737C45.4074 22.2253 45.6203 22.5953 45.8771 23.0571C46.3921 23.9791 47.0678 25.2771 47.7998 26.7201C48.5318 28.1631 49.1882 29.464 49.6854 30.3964L50.2759 31.499C50.3405 31.6189 50.3927 31.7195 50.4352 31.795C50.4531 31.8242 50.4679 31.8555 50.4792 31.8883Z" fill="#E0E0E0"/>
<path d="M60.5521 26.5737C60.5217 26.5989 60.4885 26.6197 60.4532 26.6359L60.1621 26.7883L59.084 27.3596C58.1735 27.8436 56.9224 28.5259 55.5422 29.2836C54.162 30.0414 52.9027 30.7103 51.9825 31.1736C51.5225 31.4045 51.1489 31.588 50.8839 31.7093L50.5831 31.8455C50.5491 31.8648 50.5125 31.8783 50.4746 31.8855C50.5053 31.8608 50.5385 31.8399 50.5735 31.8233L50.8646 31.6649L51.9441 31.0936C52.8546 30.6112 54.1043 29.9289 55.4859 29.1696C56.8675 28.4104 58.1241 27.7429 59.0442 27.2797C59.5043 27.0488 59.8778 26.8653 60.1429 26.7439L60.4436 26.6078C60.478 26.5905 60.5146 26.579 60.5521 26.5737Z" fill="#E0E0E0"/>
<path d="M78.0356 16.5243C78.0356 14.109 75.6817 12.5801 73.2811 13.7893C72.7386 14.0635 72.2947 14.5221 72.0176 15.0946C71.4148 16.3556 71.6812 17.7942 72.2291 18.99L74.0969 24.0916C74.1557 24.2543 74.2588 24.3941 74.3926 24.4926C74.5264 24.5912 74.6847 24.6439 74.8467 24.6439C75.0088 24.6439 75.1671 24.5912 75.3008 24.4926C75.4346 24.3941 75.5377 24.2543 75.5966 24.0916L77.4286 18.9619C78.0617 17.3946 78.0356 16.5243 78.0356 16.5243ZM75.7806 18.6259C74.1669 19.6368 72.5313 17.7675 73.4157 15.9234C73.5311 15.6774 73.7093 15.472 73.9293 15.3314C75.543 14.3206 77.1773 16.1898 76.2928 18.0339C76.1779 18.2798 76.0002 18.4852 75.7806 18.6259Z" fill="#F5F5F5"/>
<path d="M87.3971 34.0873C88.9792 27.7233 87.5262 20.5704 83.6205 15.4985C79.7147 10.4265 73.4578 7.57012 67.3657 8.07184C61.2736 8.57356 55.4891 12.4201 52.3428 18.0707C51.2798 19.9799 50.4723 22.117 48.9589 23.6296C46.9099 25.6779 43.9215 26.2196 41.1309 26.1456C38.3403 26.0716 35.5552 25.49 32.7673 25.6809C27.8233 26.0183 23.0441 28.9946 20.5089 33.5811C17.9738 38.1676 17.8611 44.2593 20.4293 48.8251C22.536 52.5725 26.1973 55.0811 30.0687 56.4116C33.9401 57.7421 38.056 58.01 42.1197 58.124C51.1288 58.3741 60.348 57.8753 68.7445 54.3485C77.1411 50.8216 84.6752 43.8405 87.3243 34.555" fill="#E0E0E0"/>
<path d="M15.4107 7.67985C16.6467 5.16385 19.1187 3.43669 21.9587 3.75193C23.1686 3.67497 25.3591 4.54225 26.7654 6.24129C28.1717 7.94033 28.743 10.4475 28.195 12.6438C27.5084 15.3951 26.0183 17.3591 23.4598 18.0783C20.9013 18.7976 17.9829 17.8534 16.2718 15.6807C14.5606 13.5081 14.176 10.2003 15.4107 7.67985Z" fill="#E0E0E0"/>
<path d="M97.507 65.724C97.507 65.7462 76.907 65.7625 51.5086 65.7625C26.1102 65.7625 5.50195 65.7462 5.50195 65.724C5.50195 65.7018 26.0937 65.6855 51.5086 65.6855C76.9235 65.6855 97.507 65.7033 97.507 65.724Z" fill="#263238"/>
<path d="M44.5189 65.7236L26.2646 65.6334C25.2107 65.6263 24.2024 65.1694 23.4605 64.3627C22.7186 63.556 22.3037 62.4653 22.3067 61.3295L22.5003 12.0115C22.5065 10.8752 22.9305 9.78799 23.6794 8.98813C24.4283 8.18828 25.4409 7.7411 26.4953 7.74465L44.7497 7.83493C45.8031 7.84197 46.811 8.29849 47.5528 9.10456C48.2946 9.91062 48.7098 11.0006 48.7076 12.1358L48.514 61.4538C48.5085 62.5906 48.0848 63.6786 47.3358 64.4791C46.5869 65.2796 45.5738 65.7272 44.5189 65.7236Z" fill="#455A64"/>
<path d="M44.7238 9.53709L41.1847 9.51933C40.9517 9.524 40.73 9.62805 40.568 9.80866C40.4061 9.98927 40.3172 10.2317 40.3209 10.4828V11.1755C40.3227 11.2998 40.3018 11.4233 40.2593 11.5388C40.2168 11.6544 40.1535 11.7598 40.0731 11.8491C39.9928 11.9383 39.8969 12.0095 39.7909 12.0588C39.685 12.108 39.5711 12.1342 39.4557 12.136L32.5561 12.1019C32.3232 12.0946 32.1025 11.9882 31.9422 11.806C31.7818 11.6238 31.695 11.3806 31.7005 11.1296V10.4369C31.7046 10.1876 31.6174 9.9465 31.4578 9.76591C31.2982 9.58531 31.079 9.47972 30.8477 9.47197H29.6034L26.5066 9.44681C25.7681 9.44288 25.0585 9.75513 24.5336 10.3149C24.0088 10.8747 23.7117 11.6362 23.7077 12.432L23.5196 60.5705C23.5163 61.3662 23.8064 62.1308 24.3261 62.6962C24.8458 63.2615 25.5525 63.5813 26.2909 63.5852L44.5096 63.6755C44.8753 63.6772 45.2378 63.6013 45.5763 63.4521C45.9149 63.3029 46.2228 63.0833 46.4826 62.8058C46.7424 62.5284 46.9489 62.1984 47.0903 61.835C47.2318 61.4715 47.3054 61.0815 47.3071 60.6874L47.4952 12.5504C47.4968 12.1564 47.4264 11.766 47.288 11.4013C47.1497 11.0367 46.946 10.705 46.6886 10.4252C46.4313 10.1454 46.1253 9.92292 45.7882 9.77054C45.4511 9.61816 45.0894 9.53884 44.7238 9.53709Z" fill="#FAFAFA"/>
<path d="M23.6855 18.2114H26.6712L29.3354 21.0841L26.5654 24.0693L23.7171 20.9983L23.6855 18.2114Z" fill="#EBEBEB"/>
<path d="M29.9442 19.8231L28.4473 18.2114H31.8147L29.9442 19.8231Z" fill="#EBEBEB"/>
<path d="M31.252 21.1403L33.8736 18.3149H43.0338C43.0338 18.3149 44.436 25.0637 38.9138 29.3972L31.252 21.1403Z" fill="#EBEBEB"/>
<path d="M30.1305 22.04L27.3262 25.0637L35.0869 33.4272L37.8912 30.3029L30.1305 22.04Z" fill="#EBEBEB"/>
<path d="M23.6504 26.7774L25.4083 24.812L23.6847 22.9546L23.6504 26.7774Z" fill="#EBEBEB"/>
<path d="M26.4617 25.9707L23.7617 28.8804V32.9237L29.3361 39.0702L34.059 34.3342L26.4617 25.9707Z" fill="#EBEBEB"/>
<path d="M39.9648 30.2452C39.9648 30.2452 45.7493 25.675 43.8788 18.3149H47.4756L47.4317 39.0882L39.9648 30.2452Z" fill="#EBEBEB"/>
<path d="M38.8781 31.4438L36.082 34.5903L44.6571 43.8329L47.2802 40.8374L38.8781 31.4438Z" fill="#EBEBEB"/>
<path d="M34.9117 35.4517L30.5156 40.1551L39.3077 49.5635L43.6955 44.9917L34.9117 35.4517Z" fill="#EBEBEB"/>
<path d="M32.6074 59.0178L39.3285 51.5112L45.7214 58.5338L32.6074 59.0178Z" fill="#EBEBEB"/>
<path d="M40.377 50.5419L47.381 43.0679C47.381 43.3994 47.3205 58.5649 47.3205 58.5649L40.377 50.5419Z" fill="#EBEBEB"/>
<path d="M34.3847 46.3447L38.355 50.6234L30.516 59.3406L26.8945 54.6594L34.3847 46.3447Z" fill="#EBEBEB"/>
<path d="M23.6582 55.266C24.0331 55.226 33.6341 45.5364 33.6341 45.5364L23.6582 34.3965V55.266Z" fill="#EBEBEB"/>
<path d="M23.5195 57.4743L25.8309 55.2661L29.0321 59.3406H23.5195V57.7821" fill="#EBEBEB"/>
<path d="M26.507 15.2779C26.2627 15.0837 26.0331 14.8689 25.8203 14.6356C25.8203 14.5231 25.8203 14.6045 25.8203 14.5793L25.8299 14.5705L25.8464 14.5542L25.8807 14.5201L25.9467 14.4535L26.0716 14.3292L26.2872 14.122C26.3525 14.0501 26.4264 13.9879 26.507 13.937C26.458 14.0175 26.3988 14.0902 26.3312 14.1531L26.1252 14.3721L26.003 14.4994L25.937 14.5675L25.9041 14.6015L25.8862 14.6178L25.878 14.6267V14.5705C26.1044 14.7883 26.3147 15.0248 26.507 15.2779Z" fill="#263238"/>
<path d="M45.4927 14.1486C45.493 14.1806 45.4844 14.212 45.4681 14.2388C45.4517 14.2655 45.4284 14.2865 45.401 14.2988C45.3736 14.3112 45.3433 14.3146 45.3142 14.3084C45.285 14.3022 45.2582 14.2868 45.2372 14.2642C45.2162 14.2415 45.2019 14.2126 45.1962 14.1812C45.1904 14.1498 45.1935 14.1172 45.205 14.0877C45.2165 14.0581 45.2359 14.033 45.2607 14.0153C45.2856 13.9977 45.3147 13.9885 45.3444 13.9888C45.3838 13.9888 45.4215 14.0056 45.4493 14.0356C45.4771 14.0656 45.4927 14.1062 45.4927 14.1486Z" fill="#263238"/>
<path d="M45.4508 14.588C45.4717 14.6106 45.486 14.6393 45.4918 14.6706C45.4976 14.7019 45.4947 14.7344 45.4833 14.7639C45.472 14.7934 45.4528 14.8186 45.4282 14.8363C45.4036 14.8541 45.3746 14.8635 45.345 14.8635C45.3154 14.8635 45.2864 14.8541 45.2618 14.8363C45.2372 14.8186 45.218 14.7934 45.2067 14.7639C45.1954 14.7344 45.1924 14.7019 45.1982 14.6706C45.204 14.6393 45.2183 14.6106 45.2393 14.588C45.2675 14.5582 45.3055 14.5415 45.345 14.5415C45.3845 14.5415 45.4225 14.5582 45.4508 14.588Z" fill="#263238"/>
<path d="M45.4921 15.2544C45.4885 15.2943 45.4713 15.3314 45.4437 15.3584C45.4162 15.3853 45.3803 15.4003 45.3431 15.4003C45.3058 15.4003 45.2699 15.3853 45.2424 15.3584C45.2148 15.3314 45.1976 15.2943 45.194 15.2544C45.192 15.232 45.1944 15.2094 45.201 15.1881C45.2076 15.1667 45.2182 15.1471 45.2323 15.1305C45.2463 15.1138 45.2634 15.1005 45.2825 15.0914C45.3016 15.0823 45.3222 15.0776 45.3431 15.0776C45.3639 15.0776 45.3846 15.0823 45.4036 15.0914C45.4227 15.1005 45.4398 15.1138 45.4539 15.1305C45.4679 15.1471 45.4785 15.1667 45.4851 15.1881C45.4917 15.2094 45.4941 15.232 45.4921 15.2544Z" fill="#263238"/>
<path d="M39.0573 14.8042H32.6328V15.3814H39.0573V14.8042Z" fill="#263238"/>
<path d="M38.3577 25.1599C38.3577 22.4634 35.7291 20.7554 33.0484 22.1067C32.4418 22.412 31.9456 22.9244 31.6366 23.5645C30.9623 24.972 31.2603 26.5792 31.8714 27.9142L33.9589 33.6137C34.0248 33.7953 34.14 33.9513 34.2895 34.0612C34.4389 34.1712 34.6157 34.23 34.7966 34.23C34.9776 34.23 35.1543 34.1712 35.3038 34.0612C35.4533 33.9513 35.5685 33.7953 35.6344 33.6137L37.6793 27.8846C38.3879 26.1382 38.3577 25.1599 38.3577 25.1599ZM35.8445 27.5131C34.0427 28.6424 32.2161 26.5556 33.2036 24.4954C33.3337 24.2237 33.5322 23.997 33.7763 23.8412C35.5794 22.712 37.406 24.7988 36.4172 26.859C36.2876 27.1311 36.089 27.3579 35.8445 27.5131Z" fill="#407BFF"/>
<path d="M92.9843 45.7495H16.7891V57.7982H92.9843V45.7495Z" fill="#407BFF"/>
<g opacity="0.5">
<path d="M92.9843 45.7495H16.7891V57.7982H92.9843V45.7495Z" fill="black"/>
</g>
<path d="M27.5205 65.6163C31.5692 65.3226 34.6304 61.5476 34.358 57.1845C34.0855 52.8214 30.5825 49.5224 26.5339 49.816C22.4852 50.1096 19.424 53.8847 19.6965 58.2478C19.9689 62.6109 23.4719 65.9099 27.5205 65.6163Z" fill="#263238"/>
<path d="M19.6824 57.582C19.6824 57.5894 19.6824 57.5968 19.6824 57.6027C19.6684 58.6426 19.8446 59.6751 20.201 60.6416C20.5573 61.608 21.0868 62.4893 21.7591 63.2352C22.4315 63.9811 23.2336 64.577 24.1197 64.9888C25.0058 65.4007 25.9584 65.6204 26.9233 65.6355C27.8882 65.6505 28.8463 65.4606 29.7431 65.0766C30.6399 64.6926 31.4577 64.122 32.1498 63.3974C32.842 62.6728 33.3949 61.8084 33.7771 60.8535C34.1592 59.8986 34.3631 58.872 34.3771 57.8322C34.3771 57.8248 34.3771 57.8173 34.3771 57.8114L19.6824 57.582Z" fill="#263238"/>
<path d="M21.8697 57.6367C21.8546 58.7362 22.1424 59.8158 22.6967 60.7389C23.251 61.6621 24.0469 62.3874 24.9838 62.823C25.9206 63.2587 26.9563 63.3851 27.9598 63.1863C28.9633 62.9876 29.8896 62.4726 30.6215 61.7064C31.3534 60.9402 31.858 59.9574 32.0714 58.8821C32.2849 57.8069 32.1977 56.6876 31.8208 55.6658C31.444 54.6439 30.7943 53.7655 29.9542 53.1416C29.114 52.5177 28.121 52.1764 27.1007 52.1607C25.7333 52.1398 24.4142 52.7048 23.4333 53.7317C22.4524 54.7585 21.89 56.1631 21.8697 57.6367Z" fill="#FAFAFA"/>
<path d="M27.1002 52.1593C25.7327 52.1379 24.4133 52.7029 23.4323 53.7298C22.4513 54.7567 21.889 56.1616 21.8691 57.6353L32.1842 57.7966C32.2037 56.3225 31.679 54.9005 30.7255 53.8433C29.7721 52.7861 28.468 52.1803 27.1002 52.1593Z" fill="#E0E0E0"/>
<path d="M23.8851 57.6678C23.8759 58.3376 24.0513 58.9952 24.389 59.5576C24.7267 60.1199 25.2115 60.5617 25.7823 60.827C26.353 61.0924 26.9839 61.1693 27.5952 61.0482C28.2065 60.9271 28.7707 60.6133 29.2165 60.1465C29.6623 59.6798 29.9697 59.081 30.0997 58.426C30.2296 57.771 30.1765 57.0891 29.9468 56.4667C29.7172 55.8443 29.3214 55.3092 28.8095 54.9292C28.2977 54.5492 27.6927 54.3413 27.0712 54.3319C26.6588 54.3254 26.2492 54.4066 25.8658 54.5708C25.4824 54.7349 25.1329 54.9789 24.837 55.2886C24.5411 55.5984 24.3048 55.968 24.1414 56.3762C23.9781 56.7844 23.891 57.2233 23.8851 57.6678Z" fill="#263238"/>
<path d="M83.6391 65.6136C87.6901 65.3603 90.7836 61.616 90.5486 57.2503C90.3136 52.8847 86.8391 49.5509 82.7881 49.8041C78.7371 50.0574 75.6436 53.8018 75.8786 58.1674C76.1136 62.5331 79.5881 65.8668 83.6391 65.6136Z" fill="#263238"/>
<path d="M75.866 57.582C75.866 57.5894 75.866 57.5968 75.866 57.6027C75.852 58.6426 76.0282 59.6751 76.3846 60.6416C76.7409 61.608 77.2704 62.4893 77.9427 63.2352C78.6151 63.9811 79.4172 64.577 80.3033 64.9888C81.1894 65.4007 82.142 65.6204 83.1069 65.6355C84.0718 65.6505 85.0299 65.4606 85.9267 65.0766C86.8235 64.6926 87.6413 64.122 88.3334 63.3974C89.0256 62.6728 89.5785 61.8084 89.9607 60.8535C90.3428 59.8986 90.5467 58.872 90.5607 57.8322C90.5607 57.8248 90.5607 57.8173 90.5607 57.8114L75.866 57.582Z" fill="#263238"/>
<path d="M78.0533 57.6367C78.0382 58.7362 78.326 59.8158 78.8803 60.7389C79.4346 61.6621 80.2305 62.3874 81.1673 62.823C82.1042 63.2587 83.1399 63.3851 84.1434 63.1863C85.1469 62.9876 86.0732 62.4726 86.8051 61.7064C87.537 60.9402 88.0416 59.9574 88.255 58.8821C88.4685 57.8069 88.3813 56.6876 88.0044 55.6658C87.6276 54.6439 86.9779 53.7655 86.1378 53.1416C85.2976 52.5177 84.3046 52.1764 83.2843 52.1607C81.9169 52.1398 80.5978 52.7048 79.6169 53.7317C78.636 54.7585 78.0736 56.1631 78.0533 57.6367Z" fill="#FAFAFA"/>
<path d="M83.2838 52.1593C81.9163 52.1379 80.5969 52.7029 79.6159 53.7298C78.6349 54.7567 78.0726 56.1616 78.0527 57.6353L88.3678 57.7966C88.3873 56.3225 87.8626 54.9005 86.9091 53.8433C85.9557 52.7861 84.6516 52.1803 83.2838 52.1593Z" fill="#E0E0E0"/>
<path d="M80.0648 57.6678C80.0556 58.3376 80.231 58.9952 80.5687 59.5576C80.9064 60.1199 81.3912 60.5617 81.9619 60.827C82.5326 61.0924 83.1636 61.1693 83.7749 61.0482C84.3862 60.9271 84.9504 60.6133 85.3962 60.1465C85.842 59.6798 86.1493 59.081 86.2793 58.426C86.4093 57.771 86.3561 57.0891 86.1265 56.4667C85.8969 55.8443 85.5011 55.3092 84.9892 54.9292C84.4774 54.5492 83.8724 54.3413 83.2509 54.3319C82.8385 54.3254 82.4288 54.4066 82.0455 54.5708C81.6621 54.7349 81.3125 54.9789 81.0167 55.2886C80.7208 55.5984 80.4845 55.968 80.3211 56.3762C80.1578 56.7844 80.0707 57.2233 80.0648 57.6678Z" fill="#263238"/>
<path d="M36.6578 38.9712C36.6578 38.9712 25.8386 39.8311 21.8258 40.8005C18.9994 41.4827 13.5501 42.6623 13.616 46.3564L14.0486 49.0056C14.0486 49.0056 12.0284 50.0001 12.0284 52.5398C12.0284 55.0795 11.5354 59.0163 16.2541 59.1747C17.0315 59.1998 18.5078 59.1747 18.5078 59.1747C18.5078 59.1747 17.6028 48.344 26.8343 48.0273C36.2265 47.7047 35.603 59.0755 35.603 59.0755H74.8021C74.8021 59.0755 73.1926 47.9977 83.303 47.9755C93.4135 47.9533 91.8754 59.148 91.8754 59.148C91.8754 59.148 95.5944 59.4943 97.3248 56.1259C99.0552 52.7574 98.6061 50.3539 98.6061 50.3539L98.5484 48.2241C98.5375 47.8746 98.4037 47.5427 98.1742 47.2954C97.9448 47.0481 97.6367 46.904 97.3124 46.8921C97.3124 46.8921 97.9881 41.5316 96.9512 40.6036C95.9144 39.6757 90.2329 34.0768 90.2329 34.0768L90.5075 33.8948C90.6094 33.8254 90.6909 33.7264 90.7426 33.6091C90.7943 33.4919 90.8141 33.3613 90.7997 33.2324C90.7854 33.1035 90.7374 32.9816 90.6613 32.8809C90.5853 32.7802 90.4844 32.7048 90.3702 32.6634C88.2127 31.8642 83.9471 30.2821 82.9446 29.9047C82.7944 29.8472 82.6379 29.8114 82.479 29.7981C81.8803 29.7493 80.1856 29.6339 77.075 29.5983C73.2859 29.5539 58.2424 29.5983 58.2424 29.5983C58.2424 29.5983 53.065 30.0571 50.181 31.4247C47.1569 32.8632 36.6578 38.9712 36.6578 38.9712Z" fill="#407BFF"/>
<g opacity="0.4">
<path d="M14.7725 52.2436C14.3797 52.1578 13.7782 52.1504 13.4788 52.436C13.2563 52.6491 13.1973 52.994 13.1643 53.3122C13.1012 53.7481 13.1105 54.1926 13.1918 54.6249C13.2332 54.8409 13.3156 55.0453 13.4337 55.2254C13.5519 55.4054 13.7033 55.5572 13.8784 55.6713C14.2383 55.8815 14.7299 55.8474 15.0087 55.5233C15.2641 55.2273 15.293 54.7833 15.2834 54.3881C15.2738 53.8169 15.3163 53.3329 15.2188 52.772C15.1973 52.6529 15.1503 52.5409 15.0815 52.4449C15.0473 52.3874 15.0012 52.3392 14.9469 52.3041C14.8926 52.2689 14.8315 52.2477 14.7684 52.2421" fill="black"/>
</g>
<path d="M14.0517 49.0054C15.1998 49.0054 16.3136 48.9374 17.4604 48.8574C17.5853 48.8634 17.7083 48.8232 17.8092 48.7435C17.8553 48.6816 17.8896 48.6106 17.9101 48.5344C17.9306 48.4582 17.9369 48.3783 17.9287 48.2995C17.9287 47.6364 17.9039 46.8816 17.437 46.4495C17.1514 46.186 16.76 46.1032 16.385 46.0662C15.454 45.9578 14.5122 46.0586 13.6191 46.3622L14.0517 49.0054Z" fill="#FAFAFA"/>
<path d="M37.9035 58.7364C37.9035 58.7364 37.9035 58.7009 37.8952 58.6298C37.887 58.5588 37.8843 58.4537 37.876 58.319C37.8623 58.0437 37.8417 57.6427 37.8156 57.1247C37.7895 56.6067 37.7565 55.9718 37.6879 55.2377C37.617 54.4065 37.4814 53.5832 37.2827 52.7764C37.032 51.8019 36.6602 50.8685 36.1772 50.0014C35.6302 49.0002 34.9032 48.1267 34.0389 47.4321C32.1863 46.0113 29.6827 45.2122 27.0638 45.1737C24.4448 45.1352 21.9399 46.0276 20.1326 47.5239C19.2662 48.2146 18.5074 49.0494 17.8844 49.997C17.3405 50.8197 16.8982 51.7152 16.5687 52.661C16.297 53.4427 16.1103 54.2557 16.0125 55.0838C15.936 55.7082 15.9134 56.3389 15.9453 56.9678C15.9678 57.3652 16.0137 57.7606 16.0826 58.1518C16.1046 58.2835 16.1224 58.3856 16.1334 58.4567C16.1444 58.5277 16.1485 58.5618 16.1485 58.5618C16.1485 58.5618 16.1403 58.5277 16.1265 58.4596L16.0675 58.1636C15.9927 57.7731 15.9432 57.3775 15.9192 56.9796C15.8818 56.3487 15.9002 55.7154 15.9741 55.0882C16.0687 54.2559 16.2531 53.4384 16.5234 52.6521C16.8517 51.6989 17.294 50.7958 17.8391 49.9659C18.4635 49.0107 19.2257 48.1693 20.0968 47.4736C21.9124 45.9699 24.4228 45.0686 27.0624 45.1056C29.7019 45.1426 32.2096 45.9492 34.0774 47.3833C34.9468 48.0848 35.6775 48.9664 36.2266 49.9763C36.7092 50.85 37.0788 51.7906 37.3253 52.772C37.5229 53.5821 37.6557 54.409 37.7222 55.2436C37.7867 55.9836 37.8156 56.6141 37.8376 57.1321C37.8595 57.6501 37.8746 58.0526 37.8856 58.3279C37.8856 58.4626 37.8939 58.5662 37.8966 58.6387C37.8994 58.7112 37.9035 58.7364 37.9035 58.7364Z" fill="white"/>
<path d="M38.315 58.92V58.8312L38.3067 58.5692C38.2999 58.3354 38.2902 57.9935 38.2765 57.5465C38.2532 56.6482 38.2188 55.3354 38.1749 53.6645C38.1309 51.9936 38.0801 49.9645 38.0211 47.6409C38.006 47.0592 37.9922 46.4569 37.9758 45.8427C37.9661 45.5288 37.979 45.2146 38.0142 44.9029L38.076 44.4263L38.1666 43.9483C38.3088 43.2952 38.5137 42.6598 38.7778 42.0524C39.0498 41.4157 39.386 40.8131 39.7803 40.2557L46.5687 35.647L48.4021 34.4038C49.0201 33.9612 49.6688 33.5708 50.3426 33.2361C51.0316 32.8864 51.7387 32.5795 52.4603 32.317C52.8201 32.1808 53.1895 32.0698 53.559 31.9514C53.9284 31.833 54.3047 31.7353 54.6865 31.6554C56.1261 31.3235 57.5895 31.1255 59.0605 31.0634C60.4721 30.9905 61.8862 30.9955 63.2973 31.0782H63.3371L63.3275 31.1211L61.5037 39.9138C61.1668 40.51 60.8905 41.1437 60.6797 41.8038C60.4722 42.4298 60.3789 43.0932 60.405 43.7574C60.4517 44.4071 60.4682 45.0435 60.4833 45.6606C60.4984 46.2778 60.5053 46.8757 60.5163 47.4574C60.5479 49.781 60.5561 51.8071 60.5616 53.4765C60.5671 55.146 60.5616 56.4587 60.5616 57.3556C60.5616 57.7996 60.5616 58.1445 60.5616 58.3783C60.5616 58.4923 60.5616 58.5796 60.5616 58.6402C60.5616 58.7009 60.5616 58.7291 60.5616 58.7291C60.5616 58.7291 60.5616 58.698 60.5616 58.6402C60.5616 58.5825 60.5616 58.4923 60.5616 58.3783C60.5616 58.1445 60.5616 57.8026 60.5616 57.3556C60.5616 56.4587 60.5492 55.146 60.5396 53.478C60.53 51.81 60.5163 49.778 60.4792 47.4574C60.4682 46.8772 60.4563 46.2788 60.4435 45.6621C60.427 45.045 60.4105 44.4115 60.3625 43.7618C60.3346 43.0893 60.4279 42.4173 60.6371 41.7831C60.8465 41.1176 61.1228 40.4789 61.4611 39.8783V39.8886C62.0201 37.1817 62.6312 34.2277 63.278 31.0945L63.3096 31.1389C61.9017 31.0571 60.4908 31.0532 59.0825 31.1271C57.615 31.1883 56.1552 31.3863 54.7194 31.7191C54.339 31.8005 53.9682 31.9144 53.596 32.0151C53.2239 32.1157 52.8599 32.2444 52.4974 32.3791C51.7757 32.6421 51.0687 32.9494 50.3797 33.2997C49.7093 33.6323 49.0637 34.0202 48.4488 34.46L46.614 35.7032L39.8256 40.3016V40.2942C39.432 40.8479 39.0967 41.447 38.8258 42.0805C38.562 42.6833 38.3577 43.3143 38.2161 43.9631C37.9071 45.2314 38.0623 46.4791 38.065 47.6409L38.2024 53.6645C38.2394 55.3339 38.2683 56.6482 38.2875 57.5451C38.2971 57.9891 38.3026 58.3354 38.3081 58.5692C38.3081 58.6827 38.3081 58.77 38.3081 58.8312C38.315 58.8904 38.315 58.92 38.315 58.92Z" fill="#263238"/>
<path d="M63.248 31.3224H63.3126L63.5007 31.315L64.23 31.2958L66.9341 31.2395L76.0503 31.0708H76.0681L76.0791 31.0856L77.3563 32.7713C78.65 34.4837 79.8832 36.1117 81.0039 37.5917L81.4159 38.1393C81.5493 38.3228 81.6639 38.5213 81.7578 38.7313C81.928 39.1207 82.0204 39.5443 82.0292 39.9746C82.0379 40.4049 81.9628 40.8324 81.8087 41.2295L81.3967 42.2655L80.1359 45.409L79.7898 46.2615L79.6978 46.4835C79.6772 46.5324 79.6649 46.5575 79.6649 46.5575C79.6649 46.5575 79.6731 46.5309 79.691 46.4806C79.7088 46.4302 79.7404 46.3518 79.7761 46.2556C79.8544 46.0573 79.9656 45.7672 80.1098 45.3972L81.3458 42.2448C81.5821 41.5758 81.9982 40.8714 81.9693 40.013C81.9632 39.5767 81.8695 39.147 81.6947 38.7535C81.6026 38.5491 81.4902 38.3561 81.3596 38.1778L80.9476 37.6302L77.2959 32.8142L76.02 31.1285L76.0475 31.1433L66.93 31.2913L64.2259 31.3254H63.4966H63.3098L63.248 31.3224Z" fill="#263238"/>
<path d="M58.6411 44.388C58.6411 44.388 58.6795 44.388 58.7496 44.3702C58.8526 44.3505 58.9507 44.3082 59.038 44.2459C59.1763 44.1486 59.28 44.0035 59.3318 43.8344C59.3633 43.7294 59.3764 43.619 59.3703 43.5088C59.367 43.386 59.3379 43.2655 59.2852 43.1566C59.2238 43.0326 59.1327 42.9286 59.0213 42.8555C58.91 42.7823 58.7824 42.7427 58.652 42.7407H57.7264H55.6046C55.4254 42.741 55.2529 42.8139 55.1212 42.945C54.9927 43.071 54.9108 43.2429 54.8905 43.4289C54.8697 43.6086 54.9003 43.7909 54.9784 43.9514C55.058 44.102 55.1816 44.2201 55.33 44.2873C55.4768 44.3416 55.6326 44.3623 55.7873 44.348H56.2364H57.0439L58.2126 44.3598L58.5298 44.3672C58.5671 44.3664 58.6043 44.3694 58.6411 44.3761C58.6041 44.3808 58.567 44.3833 58.5298 44.3835H58.2126L57.0439 44.3954H56.2364H55.7873C55.709 44.3954 55.6335 44.3954 55.5497 44.3954C55.4657 44.3898 55.383 44.3693 55.3052 44.3347C55.1424 44.2626 55.0066 44.1339 54.9193 43.9691C54.8322 43.796 54.798 43.5976 54.8218 43.4023C54.8434 43.1946 54.9351 43.0028 55.0795 42.8633C55.2238 42.7239 55.4107 42.6465 55.6046 42.646H57.7264H58.6534C58.7936 42.6492 58.9303 42.6931 59.0492 42.773C59.1682 42.853 59.2649 42.9661 59.3291 43.1004C59.3841 43.2169 59.4137 43.3455 59.4156 43.4763C59.4201 43.5918 59.4047 43.7072 59.3703 43.8167C59.3122 43.9925 59.2004 44.1418 59.0531 44.24C58.9622 44.3022 58.8593 44.3412 58.7523 44.3539C58.7166 44.37 58.6793 44.3814 58.6411 44.388Z" fill="#263238"/>
<path d="M78.9653 44.388C78.9653 44.388 79.0037 44.388 79.0738 44.3702C79.1768 44.3505 79.275 44.3082 79.3622 44.2459C79.5006 44.1486 79.6042 44.0035 79.6561 43.8344C79.6876 43.7294 79.7006 43.619 79.6945 43.5088C79.6913 43.386 79.6622 43.2655 79.6094 43.1566C79.548 43.0326 79.4569 42.9286 79.3455 42.8555C79.2342 42.7823 79.1067 42.7427 78.9763 42.7407H78.0506H75.9288C75.7496 42.741 75.5771 42.8139 75.4454 42.945C75.3169 43.071 75.235 43.2429 75.2147 43.4289C75.1939 43.6086 75.2245 43.7909 75.3026 43.9514C75.3823 44.102 75.5059 44.2201 75.6542 44.2873C75.801 44.3416 75.9568 44.3623 76.1115 44.348H76.5606H77.3681L78.5368 44.3598L78.854 44.3672C78.8913 44.3664 78.9285 44.3694 78.9653 44.3761C78.9284 44.3808 78.8912 44.3833 78.854 44.3835H78.5368L77.3681 44.3954H76.5606H76.1115C76.0332 44.3954 75.9577 44.3954 75.8739 44.3954C75.7899 44.3898 75.7073 44.3693 75.6295 44.3347C75.4666 44.2626 75.3308 44.1339 75.2435 43.9691C75.1564 43.796 75.1223 43.5976 75.146 43.4023C75.1676 43.1946 75.2593 43.0028 75.4037 42.8633C75.548 42.7239 75.735 42.6465 75.9288 42.646H78.0506H78.9776C79.1178 42.6492 79.2545 42.6931 79.3735 42.773C79.4924 42.853 79.5891 42.9661 79.6533 43.1004C79.7083 43.2169 79.7379 43.3455 79.7398 43.4763C79.7443 43.5918 79.7289 43.7072 79.6945 43.8167C79.6365 43.9925 79.5246 44.1418 79.3773 44.24C79.2864 44.3022 79.1835 44.3412 79.0765 44.3539C79.0408 44.37 79.0035 44.3814 78.9653 44.388Z" fill="#263238"/>
<path d="M96.7776 40.8154H92.7125C92.4392 40.8154 92.1711 40.8957 91.9371 41.0477C91.7031 41.1998 91.512 41.4178 91.3845 41.6783C91.2797 41.8938 91.2214 42.132 91.2137 42.3751C91.2061 42.6183 91.2495 42.8602 91.3405 43.0828L92.9336 46.9855L97.0042 46.9426C97.0042 46.9426 97.8707 41.995 96.7776 40.8154Z" fill="#FAFAFA"/>
<path d="M40.3203 40.263L61.2952 39.8457L74.9462 39.5763L79.4479 36.7747C79.5335 36.721 79.6075 36.6483 79.6651 36.5614C79.7226 36.4746 79.7624 36.3755 79.7817 36.2708C79.8011 36.1662 79.7996 36.0583 79.7773 35.9543C79.755 35.8503 79.7125 35.7526 79.6526 35.6676L76.8496 31.6997C76.7056 31.4955 76.52 31.3295 76.3072 31.2145C76.0944 31.0996 75.8599 31.0387 75.6218 31.0367L60.3531 30.9035C60.3531 30.9035 54.6044 30.5424 50.0737 33.2715C45.3096 36.1531 40.3203 40.263 40.3203 40.263Z" fill="#263238"/>
<path d="M49.9328 31.3135C49.9328 31.3135 50.9847 31.83 50.3008 32.308C49.6169 32.7861 38.99 40.004 38.99 40.004L36.5469 38.8126C40.8742 36.2182 45.2442 33.6948 49.9328 31.3135Z" fill="#455A64"/>
<path d="M39.3321 40.188L39.2662 40.2057L39.0726 40.2516L38.3269 40.4174C37.6787 40.5565 36.7393 40.7519 35.5802 40.9679C33.2455 41.4001 30.0155 41.9033 26.4214 42.2378C25.5219 42.3221 24.6361 42.3858 23.7956 42.4509C22.9551 42.516 22.1284 42.5678 21.3511 42.6433C19.7951 42.7913 18.4025 43.034 17.2709 43.3966C16.3715 43.6662 15.5058 44.0528 14.6932 44.5481C14.4007 44.7138 14.1919 44.8766 14.045 44.9743L13.8774 45.0883L13.8184 45.1253C13.836 45.11 13.8543 45.0956 13.8733 45.0823L14.0367 44.961C14.1823 44.8589 14.3883 44.6916 14.6794 44.517C15.4872 44.0082 16.3509 43.6104 17.2503 43.333C18.3847 42.9615 19.7814 42.7114 21.3387 42.5619C22.1174 42.482 22.9359 42.4257 23.7846 42.3651C24.6334 42.3044 25.5109 42.2333 26.4091 42.149C30.0017 41.8145 33.2359 41.3202 35.5665 40.9013C36.7324 40.6927 37.6718 40.5062 38.3214 40.3759L39.0698 40.2279L39.2649 40.1895L39.3321 40.188Z" fill="#263238"/>
<path d="M98.4008 50.3095C98.4008 50.3317 97.0027 50.348 95.2792 50.348C93.5557 50.348 92.1562 50.3317 92.1562 50.3095C92.1562 50.2873 93.5543 50.271 95.2792 50.271C97.0041 50.271 98.4008 50.2888 98.4008 50.3095Z" fill="#263238"/>
<path d="M72.8255 54.1547C72.8255 54.1769 64.9343 54.1932 55.2015 54.1932C45.4687 54.1932 37.5762 54.1769 37.5762 54.1547C37.5762 54.1325 45.466 54.1162 55.2015 54.1162C64.9371 54.1162 72.8255 54.134 72.8255 54.1547Z" fill="#263238"/>
<path d="M17.579 50.4369C17.579 50.4591 16.4624 50.4754 15.0864 50.4754C13.7103 50.4754 12.5938 50.4591 12.5938 50.4369C12.5938 50.4147 13.7103 50.3984 15.0864 50.3984C16.4624 50.3984 17.579 50.4162 17.579 50.4369Z" fill="#263238"/>
<path d="M90.1269 33.9229C90.1269 33.9229 89.1903 35.0521 89.5584 35.8809C89.9264 36.7097 93.7319 39.6135 93.7319 39.6135L96.4937 40.1714L90.1269 33.9229Z" fill="#455A64"/>
<path d="M63.8688 31.8999L63.248 39.1282L74.3611 38.7863L78.8395 35.9803L75.9404 31.8999H63.8688Z" fill="#455A64"/>
<path d="M42.9512 39.498C42.9512 39.498 49.6558 34.2795 52.3008 33.242C54.8539 32.2415 56.1846 31.9899 58.5824 31.91C60.8745 31.839 62.2712 31.91 62.2712 31.91L60.4996 39.2582L42.9512 39.498Z" fill="#455A64"/>
<path d="M41.9707 39.5157C41.9708 39.291 42.0263 39.0704 42.1315 38.8764C42.2367 38.6824 42.3879 38.522 42.5695 38.4117L44.1104 37.4793C44.5493 37.213 45.0445 37.0733 45.5482 37.0737C45.8584 37.0742 46.1666 37.1271 46.4615 37.2306C46.7826 37.3503 47.0621 37.5727 47.2628 37.8681C47.4635 38.1635 47.5759 38.5178 47.5849 38.8838C47.5936 39.1296 47.5561 39.3748 47.4748 39.6046C47.3935 39.8345 47.2699 40.0443 47.1115 40.2214C46.9532 40.3986 46.7632 40.5395 46.5531 40.6357C46.343 40.7318 46.1171 40.7813 45.8888 40.7811H43.1422C42.8312 40.7803 42.5333 40.6467 42.3136 40.4095C42.094 40.1722 41.9707 39.8508 41.9707 39.5157Z" fill="#407BFF"/>
<path d="M41.9704 39.5157C41.9704 39.5157 41.9704 39.5719 41.9882 39.6755C42.009 39.8279 42.0555 39.9749 42.1256 40.1092C42.2365 40.3206 42.4002 40.4944 42.598 40.6109C42.7214 40.6805 42.8553 40.7256 42.9935 40.7441C43.1512 40.7567 43.3093 40.7601 43.4673 40.7545L45.8171 40.7456C46.0398 40.752 46.2616 40.7128 46.4708 40.6301C46.6915 40.5412 46.8923 40.4028 47.0598 40.2243C47.2274 40.0457 47.358 39.831 47.4431 39.5941C47.5296 39.3443 47.5647 39.0771 47.5461 38.8112C47.5277 38.5491 47.456 38.2946 47.3362 38.0657C47.2163 37.8368 47.0512 37.6391 46.8526 37.4866C46.6608 37.3438 46.4447 37.2432 46.2167 37.1906C45.5905 37.031 44.9328 37.0992 44.3462 37.3845C44.1691 37.4703 44.007 37.5784 43.8463 37.6716L43.3877 37.9469L42.598 38.4175C42.3993 38.5328 42.2354 38.7069 42.1256 38.9193C42.0563 39.0539 42.0098 39.2007 41.9882 39.3529C41.9745 39.4565 41.9759 39.5127 41.9717 39.5127C41.9666 39.4586 41.9666 39.4041 41.9717 39.3499C41.9872 39.1946 42.0301 39.0439 42.0981 38.9059C42.206 38.6849 42.3717 38.5027 42.5746 38.382L43.3588 37.901L43.8148 37.6213C43.9741 37.5266 44.1361 37.4171 44.3174 37.3253C44.915 37.0288 45.5873 36.9559 46.2277 37.1181C46.4639 37.1687 46.6884 37.2693 46.8883 37.4141C47.0959 37.5726 47.2686 37.7786 47.3939 38.0173C47.5192 38.2559 47.5942 38.5215 47.6134 38.7949C47.6335 39.0724 47.5969 39.3513 47.5063 39.6119C47.4176 39.8593 47.2812 40.0836 47.106 40.2699C46.9308 40.4562 46.7208 40.6001 46.49 40.6923C46.2731 40.7765 46.0434 40.8162 45.813 40.8092L43.4632 40.8018C43.3033 40.8055 43.1433 40.8001 42.9839 40.7855C42.8393 40.7639 42.6996 40.7137 42.5719 40.6375C42.3695 40.5155 42.2037 40.3338 42.094 40.1136C42.0269 39.9754 41.9845 39.8247 41.969 39.6696C41.9657 39.6183 41.9661 39.5669 41.9704 39.5157Z" fill="#263238"/>
<path d="M93.6243 58.8032C93.6243 58.8032 93.6243 58.7692 93.6243 58.7011C93.6243 58.633 93.6353 58.5309 93.6435 58.4051C93.6518 58.2793 93.6655 58.1091 93.6737 57.9167C93.682 57.7243 93.6875 57.4993 93.6943 57.2492C93.7012 56.9991 93.6943 56.7179 93.6943 56.413C93.6943 56.1081 93.6737 55.7751 93.6353 55.4199C93.5729 54.6149 93.44 53.8181 93.2384 53.0401C93.1196 52.5862 92.9733 52.1412 92.8003 51.7081C92.6166 51.2401 92.3951 50.7904 92.1383 50.3642C91.566 49.4247 90.8379 48.6069 89.9905 47.9518C89.0577 47.222 88.0165 46.6684 86.9114 46.315C85.7661 45.9376 84.5191 45.7999 83.2501 45.7896C82.0124 45.7773 80.7803 45.9705 79.5971 46.3623C79.0369 46.5531 78.4929 46.7952 77.971 47.086C77.4735 47.3709 77.001 47.7038 76.5593 48.0806C75.738 48.7738 75.0064 49.5821 74.3839 50.4841C74.1102 50.8981 73.8685 51.3357 73.6615 51.7924C73.4727 52.2158 73.3058 52.6501 73.1616 53.0934C72.7228 54.4292 72.4557 55.8235 72.3678 57.2374C72.3459 57.7391 72.3486 58.1254 72.361 58.3947C72.3678 58.525 72.3733 58.6241 72.3761 58.6907C72.3788 58.7573 72.3761 58.7928 72.3761 58.7928C72.3761 58.7928 72.3761 58.7588 72.3651 58.6907C72.3541 58.6226 72.3514 58.5205 72.3418 58.3947C72.3236 58.0087 72.3236 57.6219 72.3418 57.2359C72.4177 55.8141 72.6779 54.4107 73.1149 53.0667C73.2592 52.6215 73.4251 52.1848 73.6121 51.7584C73.8209 51.2983 74.0633 50.8568 74.3372 50.4382C74.9617 49.5304 75.6956 48.7162 76.5194 48.017C76.9639 47.6372 77.4391 47.3014 77.9395 47.0135C78.4648 46.7203 79.0125 46.4762 79.5765 46.2839C80.7664 45.8875 82.0061 45.6922 83.2515 45.7052C84.526 45.7156 85.7784 45.8532 86.9334 46.235C88.0458 46.5919 89.0935 47.1504 90.0317 47.8867C90.4661 48.2313 90.8723 48.6156 91.2457 49.0352C91.6004 49.4289 91.9165 49.8609 92.1892 50.3243C92.4467 50.7543 92.6687 51.208 92.8525 51.68C93.0251 52.113 93.1705 52.558 93.2878 53.012C93.4882 53.7939 93.6184 54.5948 93.6765 55.4036C93.7136 55.7588 93.7136 56.0918 93.7287 56.3982C93.7438 56.7046 93.7287 56.9902 93.7287 57.2359C93.7287 57.4816 93.7081 57.711 93.6998 57.9048C93.6916 58.0987 93.6737 58.26 93.6628 58.3932C93.6518 58.5264 93.6435 58.6226 93.638 58.6892C93.6325 58.7558 93.6243 58.8032 93.6243 58.8032Z" fill="white"/>
<path d="M60.1746 40.2632H60.0812L59.7228 40.2721L58.4058 40.2972C57.2934 40.3194 55.758 40.3638 54.0605 40.4141C52.3631 40.4645 50.8263 40.4985 49.7139 40.5074C49.1577 40.5074 48.7073 40.5074 48.3955 40.5074H48.0371H47.9451C47.9342 40.5096 47.923 40.5096 47.9121 40.5074C47.923 40.5055 47.9342 40.5055 47.9451 40.5074H48.0371L48.3955 40.4985L49.7125 40.4733C50.8249 40.4511 52.3617 40.4067 54.0592 40.3579C55.7566 40.3091 57.2934 40.2721 58.4058 40.2632C58.9551 40.2632 59.4124 40.2632 59.7228 40.2632H60.0812H60.1746Z" fill="white"/>
<path d="M58.3846 42.4874C57.9847 42.5264 57.5829 42.5393 57.1816 42.5259C56.7802 42.5393 56.3784 42.5264 55.9785 42.4874C56.3785 42.4493 56.7802 42.4365 57.1816 42.449C57.5829 42.4365 57.9846 42.4493 58.3846 42.4874Z" fill="white"/>
<path d="M58.8281 34.5683C58.8349 34.5875 57.3421 35.258 55.4922 36.0646C53.6424 36.8712 52.1372 37.5105 52.1289 37.4898C52.1207 37.4691 53.6149 36.8001 55.4648 35.9935C57.3146 35.1869 58.8198 34.5491 58.8281 34.5683Z" fill="white"/>
<path d="M55.8005 35.0758C55.8087 35.0965 54.3859 35.7714 52.6239 36.5839C50.862 37.3964 49.4282 38.0402 49.42 38.021C49.4117 38.0017 50.8345 37.3268 52.5965 36.5128C54.3585 35.6988 55.7922 35.0536 55.8005 35.0758Z" fill="white"/>
<path d="M74.9941 34.2886C75.0023 34.3078 73.5081 34.9783 71.6582 35.7849C69.8084 36.5915 68.3032 37.2293 68.295 37.2101C68.2867 37.1909 69.7809 36.5204 71.6322 35.7138C73.4834 34.9072 74.9831 34.2679 74.9941 34.2886Z" fill="white"/>
<path d="M71.9626 34.7932C71.9708 34.8139 70.548 35.4888 68.7874 36.3013C67.0268 37.1138 65.5903 37.7576 65.5821 37.7384C65.5738 37.7191 66.9966 37.0443 68.7586 36.2303C70.5206 35.4163 71.9626 34.7799 71.9626 34.7932Z" fill="white"/>
<path d="M75.2867 40.2559C75.2867 40.2766 72.3162 40.3136 68.6522 40.3373C64.9881 40.361 62.0176 40.3625 62.0176 40.3373C62.0176 40.3121 64.9867 40.2796 68.6522 40.2574C72.3176 40.2352 75.2867 40.2396 75.2867 40.2559Z" fill="white"/>
<path d="M78.5752 42.3649C78.5752 42.3856 77.743 42.4108 76.7144 42.4211C75.6858 42.4315 74.8535 42.4211 74.8535 42.4019C74.8535 42.3826 75.6858 42.3545 76.7144 42.3442C77.743 42.3338 78.5752 42.3427 78.5752 42.3649Z" fill="white"/>
<path d="M21.6989 41.2695C21.6727 41.2791 21.6455 41.285 21.6179 41.2873L21.3858 41.3199C21.2842 41.3317 21.1606 41.348 21.0178 41.3746C20.8749 41.4012 20.7115 41.4205 20.533 41.459C20.1745 41.5271 19.7502 41.6277 19.286 41.755C18.7831 41.9045 18.2877 42.0813 17.8014 42.2848C17.285 42.5053 16.8057 42.7466 16.3773 42.9849C15.9488 43.2231 15.578 43.4629 15.2786 43.6775C15.1234 43.7796 14.9888 43.8832 14.8666 43.9735C14.7444 44.0638 14.6441 44.1378 14.5617 44.2029L14.3708 44.3509C14.349 44.3691 14.3255 44.3849 14.3008 44.3982C14.319 44.3763 14.3392 44.3565 14.3612 44.339L14.5452 44.1807C14.6249 44.1126 14.7238 44.0327 14.8432 43.9395C14.9627 43.8462 15.0932 43.7426 15.2552 43.6435C15.5574 43.4229 15.9309 43.1817 16.3539 42.9345C17.2799 42.401 18.2608 41.9863 19.2764 41.6987C19.7433 41.5685 20.1704 41.4723 20.5316 41.4116C20.7115 41.3761 20.8749 41.3583 21.0191 41.3376C21.1633 41.3169 21.2938 41.3036 21.3886 41.2962L21.6234 41.2769C21.6484 41.2725 21.6736 41.2701 21.6989 41.2695Z" fill="white"/>
<path d="M46.2227 37.7782C46.2227 37.7782 46.1828 37.7204 46.0853 37.6405C45.9536 37.5318 45.797 37.4638 45.6321 37.4437C45.3849 37.4214 45.136 37.4501 44.8988 37.528C44.0625 37.755 43.2859 38.1859 42.6286 38.7875C42.3018 39.0835 42.1288 39.3011 42.1191 39.2907C42.1524 39.2342 42.191 39.1816 42.2345 39.1338C42.3481 38.9979 42.4682 38.8684 42.5943 38.7461C43.0138 38.3434 43.4905 38.0156 44.0061 37.7752C44.2891 37.6417 44.5829 37.5361 44.8837 37.46C45.1287 37.3831 45.3853 37.359 45.639 37.3889C45.8113 37.4144 45.9728 37.4942 46.1032 37.6183C46.1378 37.6518 46.1687 37.6895 46.1952 37.7308C46.2172 37.7604 46.2254 37.7767 46.2227 37.7782Z" fill="white"/>
<path d="M90.4398 33.8696C90.2484 33.9194 90.0516 33.9413 89.8547 33.9347C89.6237 33.9272 89.3938 33.8965 89.1681 33.8429C88.8702 33.7674 88.5778 33.6685 88.2933 33.5469C87.976 33.4182 87.6382 33.2509 87.2729 33.0866L86.7029 32.8395C86.5066 32.7551 86.2992 32.6826 86.0904 32.5997C85.1737 32.2652 84.2391 31.9909 83.2916 31.7783C81.569 31.3919 79.8199 31.1583 78.0619 31.0798C77.7241 31.0605 77.4192 31.0605 77.15 31.0531H76.4634L76.0294 31.0635H75.877C75.8897 31.0609 75.9027 31.0609 75.9154 31.0635L76.028 31.0546L76.4634 31.0294L77.15 31.0161C77.4247 31.0161 77.7241 31.0161 78.0619 31.0339C79.8248 31.0959 81.5792 31.3237 83.3053 31.7147C84.2548 31.9249 85.191 32.1997 86.1083 32.5376C86.317 32.6204 86.5203 32.6944 86.7222 32.7803L87.2921 33.0334C87.6574 33.2036 87.9939 33.3693 88.3084 33.501C88.589 33.623 88.8778 33.7219 89.1722 33.797C89.3948 33.8545 89.622 33.8892 89.8506 33.9006C89.995 33.906 90.1395 33.9005 90.2832 33.8844L90.3945 33.8696H90.4398Z" fill="#263238"/>
<path d="M24.3636 34.0739C23.8143 30.8357 23.4449 30.3384 23.1345 29.2239C22.8241 28.1095 22.3311 27.3858 21.7172 27.1297C21.3052 26.9581 19.2356 26.1544 18.516 26.4208C17.8119 26.6906 17.1416 27.0535 16.5205 27.5012C16.0385 27.8458 15.6732 28.3495 15.4795 28.9368L14.3809 32.2772L16.3145 34.3492L17.2841 32.1292L18.3361 34.7932L18.1809 37.4794L24.2139 39.2287C24.7578 38.2815 24.6754 35.9106 24.3636 34.0739Z" fill="#407BFF"/>
<g opacity="0.2">
<path d="M22.797 30.5415C22.5305 32.2272 22.488 32.4655 22.2215 34.1453C22.1295 34.724 21.8617 35.6253 21.4799 36.0456C21.197 36.3549 20.9196 36.6524 20.5255 36.7531C20.1602 36.8463 19.604 36.8567 19.2606 36.6939C18.9173 36.5311 18.6234 35.8059 18.7649 35.4344C19.2771 35.5528 19.435 35.7304 19.8759 35.4344C20.2604 35.1709 20.807 34.5878 21.0157 34.1512C21.8961 32.316 22.1391 32.2509 22.8011 30.5415" fill="black"/>
</g>
<path d="M18.4257 33.8079C18.3282 33.6663 18.2392 33.5179 18.1593 33.3639L17.5386 32.2643L16.9013 31.1824C16.8063 31.0368 16.7205 30.8845 16.6445 30.7266C16.6776 30.759 16.7067 30.7958 16.7311 30.8361C16.7832 30.9086 16.856 31.0166 16.9425 31.1513C17.1183 31.4207 17.3545 31.7981 17.599 32.2228C17.8435 32.6476 18.0563 33.0413 18.2033 33.3299C18.2774 33.4779 18.3406 33.5904 18.3736 33.6732C18.3974 33.7149 18.415 33.7604 18.4257 33.8079Z" fill="#263238"/>
<path d="M22.6367 36.8312C22.593 36.8557 22.547 36.8751 22.4994 36.889C22.4431 36.9093 22.3858 36.9261 22.3277 36.9393C22.2519 36.9615 22.1748 36.9788 22.097 36.9911C21.8957 37.0297 21.6917 37.05 21.4873 37.0518C21.2364 37.0522 20.9859 37.029 20.7388 36.9822C20.4919 36.9321 20.2497 36.8583 20.015 36.7617C19.8252 36.6818 19.6415 36.5858 19.4657 36.4746C19.3888 36.4287 19.3284 36.3784 19.268 36.3384C19.2179 36.3034 19.1698 36.2653 19.1238 36.2244C19.0819 36.1935 19.0436 36.1572 19.0098 36.1164C19.018 36.1046 19.1883 36.2481 19.4904 36.4272C19.6676 36.5301 19.8511 36.6196 20.0398 36.6951C20.5034 36.8813 20.9939 36.978 21.4886 36.9807C21.6903 36.981 21.8917 36.9666 22.0915 36.9378C22.4266 36.886 22.6326 36.8164 22.6367 36.8312Z" fill="#263238"/>
<path d="M20.2154 31.7861C20.2044 31.8439 19.5562 33.2351 19.5562 33.2351L16.4964 31.4975L16.1846 30.0767C16.1332 29.8486 16 29.6517 15.8142 29.5291C15.6283 29.4065 15.405 29.3682 15.1931 29.4226L14.2908 29.8207C14.2536 29.8364 14.2206 29.8618 14.1947 29.8946C14.1688 29.9274 14.1509 29.9666 14.1425 30.0087C14.1301 30.0797 14.1425 30.1567 14.262 30.1404C14.4858 30.1211 14.9486 30.0679 14.9486 30.0679L14.7358 30.8774C14.6796 31.0896 14.7012 31.3169 14.7962 31.5123L14.9335 31.7921L15.2315 32.3115H15.2247C15.2247 32.3115 18.1993 35.6045 19.8693 35.8191C20.8732 35.9479 22.0103 32.9154 22.0103 32.9154L20.2154 31.7861Z" fill="#B78876"/>
<path d="M14.9258 30.1226C14.9258 30.1226 14.9491 30.0886 14.9999 30.0516C15.068 30.0005 15.1491 29.9736 15.232 29.9746C15.2753 29.9773 15.3172 29.9924 15.3532 30.0184C15.3892 30.0445 15.418 30.0805 15.4367 30.1226C15.4655 30.1892 15.4463 30.2336 15.4367 30.2307C15.427 30.2277 15.4367 30.1892 15.4037 30.1389C15.3834 30.107 15.3567 30.0804 15.3256 30.0612C15.2944 30.0419 15.2596 30.0306 15.2238 30.0279C15.1495 30.0291 15.0765 30.0494 15.0109 30.0871C14.9684 30.1093 14.9299 30.1286 14.9258 30.1226Z" fill="#AA6550"/>
<path d="M15.3124 30.627C15.3124 30.627 15.2918 30.6004 15.2629 30.5604C15.2261 30.5094 15.1772 30.47 15.1214 30.4464C15.0656 30.4227 15.0049 30.4155 14.9457 30.4257C14.899 30.4257 14.8701 30.4435 14.8674 30.4376C14.8646 30.4317 14.8894 30.4095 14.9388 30.3917C15.0041 30.3711 15.074 30.3745 15.1373 30.4013C15.2007 30.4281 15.2541 30.4768 15.289 30.5397C15.3137 30.59 15.3165 30.6255 15.3124 30.627Z" fill="#AA6550"/>
<path d="M20.8494 27.3947L20.0254 31.626L22.2227 33.0483L23.066 30.4479C23.066 30.4479 22.7116 27.2896 20.8494 27.3947Z" fill="#407BFF"/>
<path d="M22.0328 27.4688C22.0328 27.4688 22.0149 27.485 21.9765 27.5072C21.938 27.5294 21.8831 27.562 21.8103 27.6019C21.6647 27.6819 21.4505 27.7943 21.1827 27.9231C20.4865 28.2661 19.7535 28.5147 19.0005 28.6631C18.2427 28.809 17.4649 28.7808 16.718 28.5802C16.4944 28.5169 16.2766 28.4322 16.067 28.3271C15.9915 28.2931 15.9297 28.2561 15.8981 28.2354C15.8784 28.2248 15.8596 28.2124 15.8418 28.1984C15.9222 28.2277 16.0011 28.2618 16.078 28.3005C16.2914 28.3934 16.5108 28.4696 16.7345 28.5284C17.4757 28.7113 18.2436 28.7314 18.9922 28.5876C19.7402 28.4392 20.47 28.1994 21.1676 27.8728C21.4423 27.7514 21.6524 27.6463 21.8021 27.5768C21.8767 27.5353 21.9537 27.4992 22.0328 27.4688Z" fill="#EBEBEB"/>
<path d="M22.612 27.9365C22.5932 27.9549 22.5724 27.9707 22.5502 27.9839L22.3689 28.1097C22.2731 28.1773 22.1741 28.2396 22.0723 28.2962C21.9541 28.3628 21.8223 28.4442 21.6671 28.5182L21.4282 28.6366C21.3444 28.678 21.2537 28.712 21.1617 28.752C20.9791 28.8334 20.7758 28.9 20.5643 28.974C19.6371 29.2754 18.6679 29.3991 17.7009 29.3396C17.4785 29.3203 17.267 29.307 17.0719 29.273C16.9731 29.2567 16.8783 29.2463 16.7877 29.2286L16.5281 29.1723C16.3633 29.1412 16.2164 29.0939 16.0873 29.0584C15.9762 29.0295 15.8667 28.9944 15.759 28.9533L15.5544 28.8763C15.5299 28.8693 15.5064 28.8588 15.4844 28.8452C15.5097 28.8467 15.5347 28.8522 15.5585 28.8615L15.7673 28.9237C15.8565 28.9533 15.9664 28.9873 16.0969 29.0169C16.2273 29.0465 16.3715 29.0924 16.5391 29.119L16.7973 29.1694C16.8865 29.1871 16.9813 29.196 17.0719 29.2093C17.267 29.2404 17.4839 29.2522 17.6968 29.2685C18.6566 29.3211 19.6177 29.1985 20.5396 28.9059C20.7497 28.8349 20.9516 28.7712 21.1343 28.6913C21.2249 28.6528 21.3155 28.6203 21.3993 28.5818L21.6397 28.4678C21.7948 28.3998 21.9267 28.3198 22.0517 28.2577C22.1766 28.1955 22.2728 28.1348 22.3524 28.0845L22.5419 27.972C22.5637 27.9569 22.5873 27.9449 22.612 27.9365Z" fill="#EBEBEB"/>
<path d="M22.2173 33.0485C22.1557 33.0205 22.0961 32.9879 22.0387 32.9509L21.5553 32.6549L19.9073 31.6292L19.8867 31.6159V31.5907C19.9458 31.2755 20.0089 30.9351 20.0749 30.5858C20.1737 30.0589 20.2699 29.5587 20.3495 29.1058C20.3949 28.8779 20.4319 28.6618 20.4731 28.4561C20.5104 28.2659 20.5694 28.0815 20.6489 27.907C20.764 27.6479 20.9678 27.4469 21.2175 27.3461C21.2851 27.321 21.3561 27.3085 21.4276 27.3091C21.4522 27.3073 21.4768 27.3103 21.5004 27.318C21.4067 27.3214 21.314 27.3404 21.2257 27.3742C20.9898 27.4815 20.7997 27.68 20.6929 27.9307C20.6186 28.1031 20.5638 28.2845 20.5294 28.4709C20.4924 28.6737 20.4539 28.8912 20.4127 29.1177C20.3276 29.5765 20.2342 30.0767 20.138 30.5977C20.0721 30.9484 20.0076 31.2873 19.9485 31.6026L19.932 31.5641L21.5704 32.6134L22.0442 32.9242C22.105 32.9604 22.1629 33.002 22.2173 33.0485Z" fill="#263238"/>
<path d="M22.8901 30.3223C22.9022 30.4539 22.8985 30.5868 22.8791 30.7174C22.8504 31.0337 22.798 31.347 22.7226 31.6543C22.6472 31.9618 22.5499 32.2627 22.4314 32.5541C22.3885 32.678 22.3308 32.7954 22.2598 32.9034C22.2934 32.7771 22.3351 32.6534 22.3847 32.5334C22.5932 31.9445 22.7424 31.3332 22.8297 30.71C22.8422 30.5795 22.8624 30.45 22.8901 30.3223Z" fill="#263238"/>
<path d="M10.9751 53.8589L10.9504 56.1174C10.9504 56.1174 8.81073 56.85 8.76953 57.2673L12.8319 57.4745L13.0049 53.9566L10.9751 53.8589Z" fill="#455A64"/>
<path d="M12.2221 55.9913C12.2607 56.0061 12.2928 56.0358 12.3123 56.0746C12.3318 56.1134 12.3374 56.1585 12.3279 56.2015C12.3158 56.2437 12.289 56.2792 12.2532 56.3007C12.2174 56.3222 12.1753 56.328 12.1356 56.3169C12.0949 56.3008 12.0611 56.2691 12.0406 56.2279C12.0201 56.1868 12.0143 56.1389 12.0244 56.0934C12.0416 56.0511 12.0734 56.0175 12.1131 55.9999C12.1528 55.9822 12.1973 55.9818 12.2372 55.9987" fill="#E0E0E0"/>
<path d="M12.8324 57.4745V57.1193L8.93484 57.0527C8.93484 57.0527 8.74944 57.1282 8.76455 57.2673L12.8324 57.4745Z" fill="#E0E0E0"/>
<path d="M10.8868 56.0922C10.8868 56.1129 10.9857 56.1277 11.0791 56.2017C11.1725 56.2757 11.2164 56.3675 11.2411 56.3601C11.2659 56.3527 11.2411 56.2283 11.1189 56.141C10.9967 56.0537 10.8827 56.0715 10.8868 56.0922Z" fill="#263238"/>
<path d="M10.4512 56.2595C10.4512 56.2802 10.5308 56.3217 10.5885 56.4149C10.6462 56.5081 10.6668 56.6058 10.6874 56.6058C10.708 56.6058 10.7245 56.4859 10.6434 56.3705C10.5624 56.2551 10.4525 56.2403 10.4512 56.2595Z" fill="#263238"/>
<path d="M10.1855 56.7965C10.2033 56.7965 10.2363 56.6973 10.1855 56.5774C10.1347 56.4575 10.0482 56.4072 10.0399 56.4294C10.0317 56.4516 10.0852 56.5123 10.1209 56.6115C10.1566 56.7106 10.1635 56.7935 10.1855 56.7965Z" fill="#263238"/>
<path d="M10.9439 55.5771C10.9521 55.5978 11.0441 55.5771 11.1567 55.586C11.2693 55.5949 11.3531 55.6437 11.3641 55.6259C11.3751 55.6082 11.2954 55.5268 11.1636 55.512C11.0317 55.4972 10.9356 55.5608 10.9439 55.5771Z" fill="#263238"/>
<g opacity="0.3">
<path d="M10.9723 54.3057L10.9668 54.7082L12.965 54.7911L12.9829 54.4285L10.9723 54.3057Z" fill="black"/>
</g>
<path d="M10.957 55.1214C11.0226 55.1449 11.0929 55.1485 11.1603 55.1318C11.2342 55.1215 11.3067 55.1011 11.3759 55.0711C11.4172 55.0545 11.4572 55.0342 11.4954 55.0104C11.5191 54.9985 11.5409 54.9825 11.5599 54.9631C11.5737 54.9484 11.5825 54.9293 11.585 54.9086C11.5875 54.888 11.5835 54.867 11.5737 54.8491C11.5642 54.8338 11.5516 54.821 11.5369 54.8117C11.5221 54.8025 11.5055 54.7971 11.4885 54.7958C11.4627 54.7944 11.4368 54.7969 11.4116 54.8032C11.368 54.8123 11.3252 54.8257 11.2839 54.8432C11.214 54.8734 11.1487 54.9148 11.0902 54.966C10.9914 55.0563 10.9529 55.1347 10.9625 55.1392C10.9721 55.1436 11.0202 55.0814 11.1191 55.0089C11.1772 54.9672 11.24 54.9334 11.3059 54.9083C11.3444 54.8941 11.3839 54.8833 11.424 54.8757C11.4679 54.8654 11.505 54.8668 11.5146 54.8876C11.5242 54.9083 11.5146 54.8994 11.5146 54.9127C11.5004 54.9265 11.4847 54.9384 11.4679 54.9482C11.4308 54.9704 11.3938 54.9912 11.358 55.0089C11.2933 55.0391 11.2262 55.0629 11.1575 55.08C11.0899 55.0891 11.023 55.1029 10.957 55.1214Z" fill="#263238"/>
<path d="M10.9869 55.1538C11.0277 55.0931 11.0494 55.02 11.0487 54.9451C11.0563 54.8642 11.0507 54.7826 11.0322 54.7038C11.0211 54.6568 11.0055 54.6112 10.9855 54.5677C10.9759 54.5382 10.9593 54.5119 10.9374 54.4914C10.9154 54.4709 10.889 54.4569 10.8605 54.4508C10.8426 54.45 10.8248 54.4549 10.8095 54.4649C10.7941 54.4749 10.7818 54.4895 10.774 54.507C10.7619 54.5321 10.7535 54.559 10.7493 54.5869C10.7424 54.636 10.7424 54.6859 10.7493 54.7349C10.7568 54.8175 10.7832 54.8969 10.8262 54.9658C10.9004 55.0842 10.9828 55.1138 10.9841 55.1064C10.9855 55.099 10.9237 55.0516 10.8674 54.9392C10.8352 54.8747 10.8164 54.8035 10.8125 54.7305C10.8103 54.6878 10.8135 54.645 10.8221 54.6032C10.8303 54.5573 10.8482 54.5203 10.8647 54.5262C10.8811 54.5322 10.9168 54.5632 10.9319 54.6017C10.9506 54.6405 10.9657 54.6812 10.9773 54.7231C10.997 54.7947 11.0072 54.8689 11.0075 54.9436C10.9965 55.0709 10.9718 55.1493 10.9869 55.1538Z" fill="#263238"/>
<path d="M19.2575 37.5032C19.2575 37.5032 12.91 34.632 10.9461 34.5121C9.71009 34.4352 8.78172 35.2877 8.94927 36.6611C9.03304 37.3493 10.7868 45.3931 10.7868 45.3931L13.4593 44.0788L12.1739 38.5155L17.3925 41.2476L19.2575 37.5032Z" fill="#263238"/>
<path d="M11.3744 37.1083C11.3538 37.1275 11.564 37.4191 11.7864 37.8053C12.0089 38.1916 12.1572 38.5246 12.182 38.5143C12.2067 38.5039 12.0927 38.1472 11.8661 37.7535C11.6395 37.3599 11.3978 37.0905 11.3744 37.1083Z" fill="#455A64"/>
<path d="M10.8559 37.4278C10.8422 37.4529 11.1621 37.672 11.5426 37.9709C11.923 38.2699 12.2086 38.5319 12.2292 38.5111C12.2498 38.4904 11.9752 38.1841 11.5934 37.8881C11.2116 37.5921 10.8669 37.4041 10.8559 37.4278Z" fill="#455A64"/>
<path d="M24.2083 39.2291C24.2083 39.2291 23.4104 40.3376 22.6496 40.641C21.6882 41.0214 14.6211 44.6163 14.6211 44.6163C14.6211 44.6163 13.3384 54.886 13.44 54.4568L10.4805 54.3799L10.8018 44.9212C10.8403 43.7105 11.7412 42.3193 12.7094 41.7007L19.2574 37.5034L24.2083 39.2291Z" fill="#263238"/>
<path d="M10.7452 46.6526C10.7546 46.6099 10.7588 46.5661 10.7576 46.5223C10.7576 46.4276 10.7686 46.3048 10.7755 46.1508C10.7923 45.6955 10.8317 45.2415 10.8936 44.7907C10.9803 44.1245 11.1995 43.4864 11.5363 42.92C11.7447 42.5944 12.0018 42.3083 12.2971 42.0734C12.6176 41.8218 12.9529 41.5929 13.301 41.3882C14.7252 40.5091 15.9543 39.6122 16.8634 38.998C17.3166 38.6872 17.6874 38.44 17.9401 38.2713L18.234 38.076C18.2696 38.0548 18.3031 38.03 18.3343 38.002C18.2965 38.0167 18.2601 38.0356 18.2258 38.0582C18.1557 38.0982 18.0527 38.1574 17.9223 38.2373C17.66 38.3956 17.2864 38.6354 16.8236 38.9373C15.9049 39.5382 14.6689 40.4247 13.2529 41.3053C12.9013 41.5124 12.5627 41.7443 12.2394 41.9994C11.9367 42.2414 11.6739 42.5366 11.4621 42.8726C11.1233 43.4538 10.9072 44.1081 10.829 44.7892C10.7724 45.2431 10.7431 45.7003 10.7411 46.1582C10.7411 46.3062 10.7411 46.435 10.7411 46.5312C10.7391 46.5717 10.7405 46.6123 10.7452 46.6526Z" fill="#455A64"/>
<path d="M21.5953 40.3106C21.5404 40.219 21.4799 40.1315 21.414 40.0487C21.2776 39.8349 21.1829 39.5935 21.1357 39.3391C21.0885 39.0847 21.0897 38.8226 21.1393 38.5687C21.1698 38.4645 21.1937 38.3582 21.2107 38.2505C21.1441 38.3362 21.097 38.4376 21.0734 38.5465C21.0031 38.8093 20.9927 39.0865 21.0432 39.3546C21.0925 39.6226 21.2019 39.8736 21.3618 40.0857C21.4868 40.2559 21.5898 40.3195 21.5953 40.3106Z" fill="#455A64"/>
<path d="M11.5673 54.3795C11.5722 54.3627 11.5749 54.3453 11.5756 54.3277C11.5756 54.2863 11.5865 54.2359 11.5934 54.1723C11.6085 54.0243 11.6277 53.8289 11.6525 53.5803C11.7005 53.0534 11.7692 52.3031 11.8543 51.3795C11.8942 50.9148 11.9395 50.4057 11.9917 49.8596C12.0439 49.3135 12.0919 48.7289 12.129 48.1132C12.1661 47.4975 12.2265 46.8537 12.3309 46.1892C12.4328 45.5075 12.6175 44.8432 12.8802 44.2134C13.1546 43.5911 13.5169 43.0184 13.9542 42.5158C14.3639 42.0483 14.8126 41.6223 15.2946 41.243C16.1205 40.6162 16.9784 40.0395 17.8641 39.5159C18.6153 39.0511 19.214 38.6545 19.6109 38.3555C19.8114 38.2075 19.9625 38.0877 20.0641 38.0033L20.1781 37.9071C20.2038 37.8854 20.2161 37.8736 20.2152 37.8716C20.1999 37.8782 20.1856 37.8872 20.1726 37.8982L20.0532 37.987C19.9488 38.0655 19.7936 38.1809 19.5917 38.3245C19.188 38.6116 18.5864 38.9979 17.8311 39.4552C16.9382 39.9712 16.0742 40.5435 15.2437 41.169C14.7554 41.5492 14.3011 41.9778 13.8869 42.4492C13.4418 42.9586 13.0734 43.5398 12.7951 44.1719C12.5313 44.8095 12.3466 45.4818 12.2457 46.1714C12.1427 46.8374 12.0906 47.4842 12.048 48.0954C12.0054 48.7067 11.9628 49.2957 11.9107 49.8418C11.8585 50.3879 11.8255 50.8971 11.7884 51.3633C11.7156 52.2883 11.6511 53.0386 11.6168 53.567C11.5985 53.8215 11.5847 54.0189 11.5756 54.159C11.5756 54.2226 11.5687 54.2744 11.566 54.3144C11.5632 54.3543 11.5646 54.3795 11.5673 54.3795Z" fill="#455A64"/>
<path d="M18.54 21.2144C18.4403 20.9378 18.2524 20.7085 18.01 20.5678C17.7677 20.427 17.4867 20.3839 17.2175 20.4463C17.099 20.493 16.9752 20.5219 16.8494 20.5321C16.697 20.504 16.5472 20.4614 16.4017 20.4049C16.2369 20.3761 16.068 20.4143 15.9279 20.5123C15.7878 20.6102 15.6865 20.7608 15.6436 20.9347C15.5146 20.9009 15.3803 20.8978 15.2501 20.9257C15.1199 20.9536 14.9969 21.0117 14.8897 21.096C14.7845 21.1838 14.7098 21.3071 14.6777 21.4462C14.6456 21.5853 14.6578 21.732 14.7125 21.8627C14.7661 21.9707 14.8498 22.0565 14.9034 22.1675C14.9844 22.3496 14.9474 22.5686 15.0037 22.7595C15.0565 22.8984 15.1446 23.0184 15.2577 23.1058C15.3709 23.1932 15.5047 23.2445 15.6436 23.2539C15.9232 23.2693 16.203 23.2266 16.4676 23.1281" fill="#263238"/>
<path d="M17.2622 27.0678C17.2279 26.7807 17.2059 26.5794 17.2059 26.5794C17.2059 26.5794 16.3201 26.5794 15.9699 25.3954C15.7928 24.8034 15.6746 23.8148 15.6032 22.9978C15.5876 22.8238 15.6049 22.6481 15.6539 22.4815C15.703 22.3148 15.7829 22.1606 15.8888 22.0281C15.9946 21.8956 16.1243 21.7876 16.27 21.7106C16.4156 21.6336 16.5742 21.5891 16.7362 21.58L19.0874 21.4482L19.1382 21.8404L19.7576 26.7126C19.78 26.8892 19.7697 27.0689 19.7275 27.2413C19.6852 27.4137 19.6117 27.5753 19.5113 27.717C19.4109 27.8587 19.2854 27.9775 19.1422 28.0668C18.999 28.156 18.8408 28.2139 18.6768 28.237C18.5126 28.2607 18.3457 28.2492 18.1856 28.2032C18.0256 28.1573 17.8756 28.0777 17.7441 27.969C17.6127 27.8604 17.5025 27.7249 17.4198 27.5702C17.3371 27.4156 17.2835 27.2448 17.2622 27.0678Z" fill="#B78876"/>
<path d="M15.9307 23.695C15.9365 23.7354 15.9566 23.7719 15.9868 23.7968C16.017 23.8216 16.055 23.8329 16.0928 23.8282C16.1115 23.8269 16.1297 23.8215 16.1464 23.8124C16.1631 23.8033 16.1779 23.7905 16.1898 23.775C16.2018 23.7595 16.2107 23.7415 16.216 23.7221C16.2212 23.7028 16.2228 23.6824 16.2205 23.6624C16.2154 23.6216 16.1954 23.5846 16.165 23.5597C16.1347 23.5347 16.0963 23.5237 16.0584 23.5292C16.0397 23.5305 16.0215 23.5358 16.0048 23.545C15.9881 23.5541 15.9733 23.5668 15.9614 23.5824C15.9494 23.5979 15.9405 23.6159 15.9352 23.6353C15.93 23.6546 15.9284 23.6749 15.9307 23.695Z" fill="#263238"/>
<path d="M15.8711 23.4757C15.8917 23.492 15.9879 23.3869 16.1458 23.3603C16.3037 23.3336 16.4205 23.3988 16.4411 23.3751C16.4617 23.3514 16.4246 23.3307 16.3697 23.3011C16.2952 23.2617 16.211 23.2488 16.1293 23.2641C16.0485 23.2771 15.9737 23.3181 15.9165 23.381C15.8711 23.4284 15.8601 23.4683 15.8711 23.4757Z" fill="#263238"/>
<path d="M17.4034 23.4256C17.4091 23.466 17.4293 23.5023 17.4596 23.5269C17.4898 23.5515 17.5278 23.5624 17.5654 23.5573C17.5841 23.5562 17.6024 23.551 17.6191 23.5421C17.6359 23.5331 17.6507 23.5206 17.6628 23.5052C17.6749 23.4898 17.684 23.4719 17.6894 23.4526C17.6949 23.4333 17.6966 23.4131 17.6945 23.393C17.6887 23.3526 17.6686 23.3161 17.6384 23.2912C17.6082 23.2664 17.5702 23.2551 17.5325 23.2598C17.5136 23.2609 17.4952 23.2661 17.4784 23.2752C17.4615 23.2842 17.4466 23.2969 17.4345 23.3125C17.4224 23.328 17.4134 23.3461 17.408 23.3655C17.4027 23.385 17.4011 23.4054 17.4034 23.4256Z" fill="#263238"/>
<path d="M17.3999 23.2449C17.4205 23.2627 17.5166 23.1561 17.6745 23.131C17.8325 23.1058 17.9492 23.168 17.9698 23.1443C17.9904 23.1206 17.9533 23.1014 17.8984 23.0703C17.8235 23.0322 17.7398 23.0193 17.6581 23.0333C17.5775 23.0473 17.503 23.0882 17.4452 23.1502C17.3999 23.1976 17.3903 23.2361 17.3999 23.2449Z" fill="#263238"/>
<path d="M17.0193 24.5827C16.9332 24.5702 16.8459 24.5702 16.7598 24.5827C16.72 24.5827 16.6815 24.5827 16.6705 24.5546C16.6579 24.5117 16.6579 24.4657 16.6705 24.4229C16.6925 24.3133 16.7158 24.1979 16.7406 24.078C16.8076 23.7838 16.8535 23.4844 16.8779 23.1826C16.7879 23.4723 16.7195 23.7692 16.6733 24.0706C16.6513 24.192 16.6293 24.3074 16.6101 24.4184C16.5909 24.4733 16.5909 24.5338 16.6101 24.5886C16.6181 24.6026 16.6289 24.6146 16.6418 24.6235C16.6546 24.6325 16.6691 24.6383 16.6843 24.6404C16.7071 24.6435 16.7301 24.6435 16.7529 24.6404C16.8436 24.6334 16.9332 24.614 17.0193 24.5827Z" fill="#263238"/>
<path d="M17.2051 26.5793C17.7358 26.4972 18.235 26.258 18.6471 25.8882C18.6471 25.8882 18.4026 26.788 17.2614 26.8635L17.2051 26.5793Z" fill="#AA6550"/>
<path d="M17.4943 24.6198C17.4682 24.6198 17.4943 24.8033 17.3707 24.9572C17.2471 25.1111 17.0631 25.1215 17.0645 25.1467C17.0658 25.1718 17.1098 25.1763 17.1867 25.1644C17.2857 25.1501 17.3764 25.0975 17.4421 25.0164C17.5065 24.9396 17.54 24.8386 17.5355 24.7352C17.5314 24.6583 17.5053 24.6168 17.4943 24.6198Z" fill="#263238"/>
<path d="M17.2635 22.5967C17.2855 22.6396 17.4379 22.5967 17.6233 22.5834C17.8087 22.5701 17.9639 22.6041 17.9818 22.5597C17.9996 22.5153 17.9584 22.5005 17.8925 22.4665C17.8051 22.4254 17.7101 22.4065 17.6148 22.4114C17.5195 22.4163 17.4266 22.4447 17.3432 22.4946C17.2828 22.5346 17.2539 22.576 17.2635 22.5967Z" fill="#263238"/>
<path d="M15.8544 22.9818C15.8874 23.0143 15.9918 22.9566 16.1167 22.9329C16.2417 22.9092 16.3584 22.9181 16.3777 22.8737C16.3859 22.853 16.3626 22.8175 16.3104 22.7908C16.2401 22.7572 16.1619 22.7479 16.0865 22.7642C16.0113 22.7785 15.9422 22.8178 15.8888 22.8767C15.8489 22.924 15.8393 22.9655 15.8544 22.9818Z" fill="#263238"/>
<path d="M15.4782 22.4636C15.4782 22.4636 16.1003 22.69 16.8145 22.175C17.2828 21.8375 17.8513 21.6259 17.9928 21.7176C18.1342 21.8094 18.2263 22.36 18.7413 22.4576C18.7413 22.4576 18.8319 23.5232 19.2205 23.4315C19.4952 23.3664 19.3359 22.1912 19.2205 21.5208C19.1964 21.3912 19.1328 21.274 19.0397 21.1879C18.9466 21.1018 18.8295 21.0517 18.7069 21.0457L17.9832 21.0146L17.0795 21.287L16.1099 21.5711L15.3711 21.9041L15.4782 22.4636Z" fill="#263238"/>
<path d="M19.1348 22.9978C19.1485 22.9874 19.7486 22.647 19.8599 23.353C19.9711 24.0589 19.2913 24.0323 19.2858 24.0131C19.2803 23.9938 19.1348 22.9978 19.1348 22.9978Z" fill="#B78876"/>
<path d="M19.4443 23.7081C19.4443 23.7081 19.458 23.7155 19.4786 23.7214C19.5075 23.7288 19.538 23.7241 19.5638 23.7081C19.6011 23.6713 19.6289 23.6246 19.6443 23.5727C19.6597 23.5208 19.6623 23.4654 19.6516 23.4121C19.6437 23.3514 19.6236 23.2933 19.5926 23.2419C19.5826 23.2211 19.5682 23.2031 19.5505 23.1895C19.5329 23.1759 19.5125 23.1669 19.491 23.1634C19.4773 23.1622 19.4637 23.1661 19.4524 23.1745C19.4412 23.1828 19.4329 23.1951 19.4292 23.2093C19.4292 23.2301 19.4292 23.2434 19.4292 23.2463C19.4292 23.2493 19.4141 23.236 19.4141 23.2064C19.4152 23.1882 19.422 23.171 19.4333 23.1575C19.4492 23.1397 19.4708 23.1291 19.4937 23.1279C19.5217 23.1285 19.549 23.1368 19.573 23.1521C19.5971 23.1674 19.6171 23.1892 19.631 23.2152C19.6686 23.2712 19.6927 23.3363 19.7011 23.4047C19.7147 23.467 19.7107 23.5323 19.6897 23.5921C19.6687 23.652 19.6315 23.7037 19.583 23.7406C19.5662 23.7492 19.5479 23.7536 19.5294 23.7536C19.5109 23.7536 19.4926 23.7492 19.4759 23.7406C19.4484 23.7258 19.4429 23.711 19.4443 23.7081Z" fill="#AA6550"/>
<path d="M15.793 20.6742C15.793 20.6742 15.8149 20.7127 15.8616 20.7689C15.9285 20.8487 16.0138 20.9079 16.1088 20.9406C16.25 20.9897 16.4009 20.9969 16.5456 20.9613C16.7254 20.9142 16.9021 20.8539 17.0743 20.7808C17.2526 20.7051 17.443 20.6684 17.6346 20.6727C17.7966 20.679 17.9499 20.7534 18.0617 20.8799C18.1379 20.9625 18.1841 21.0717 18.1922 21.1878C18.1979 21.2299 18.1912 21.2728 18.173 21.3106C18.1661 21.3106 18.173 21.2662 18.1647 21.1907C18.1476 21.0859 18.0994 20.9898 18.0274 20.9169C17.9216 20.8076 17.7812 20.7457 17.6346 20.7438C17.4517 20.7439 17.2705 20.7811 17.1004 20.8533C16.9253 20.9283 16.7448 20.9877 16.5607 21.0309C16.4052 21.0655 16.2438 21.0522 16.0951 20.9924C15.9941 20.9524 15.9063 20.8814 15.8424 20.7882C15.793 20.7201 15.793 20.6757 15.793 20.6742Z" fill="#455A64"/>
<path d="M18.0055 21.3506C18.0055 21.3506 17.9726 21.3136 17.9039 21.2618C17.806 21.1973 17.6932 21.1634 17.5784 21.1642C17.4043 21.1635 17.2327 21.2087 17.0785 21.2959C16.8859 21.408 16.6868 21.5069 16.4825 21.5919C16.2887 21.6567 16.0846 21.6779 15.8828 21.6543C15.6811 21.6306 15.486 21.5625 15.3097 21.4542C15.203 21.3896 15.1054 21.3088 15.0199 21.2145C14.9866 21.1824 14.9587 21.1443 14.9375 21.102C15.0591 21.2178 15.1917 21.3195 15.333 21.4054C15.6803 21.6018 16.0854 21.6428 16.4605 21.5194C16.6619 21.4316 16.859 21.3328 17.0511 21.2234C17.215 21.134 17.3977 21.0921 17.5812 21.102C17.7059 21.1072 17.8259 21.1542 17.9245 21.2367C17.9605 21.2661 17.9885 21.3055 18.0055 21.3506Z" fill="#455A64"/>
<path d="M15.9713 33.3772L12.7824 30.4482L11.7305 30.7043C11.7305 30.7043 12.8387 33.1877 13.6408 34.0979C13.6408 34.0979 14.4332 35.2405 15.7406 34.7462C17.048 34.2518 15.9713 33.3772 15.9713 33.3772Z" fill="#B78876"/>
<path d="M12.5409 27.2217H11.1854C11.1342 27.2247 11.0844 27.2399 11.0394 27.2663C10.9944 27.2927 10.9554 27.3295 10.9253 27.3742C10.8951 27.4188 10.8746 27.4702 10.8652 27.5244C10.8558 27.5787 10.8578 27.6345 10.8709 27.6879L12.2346 30.5487C12.2605 30.6032 12.2998 30.6489 12.3483 30.6808C12.3968 30.7127 12.4525 30.7294 12.5093 30.7293H14.1573C14.196 30.7246 14.2331 30.7097 14.2652 30.6859C14.2973 30.662 14.3234 30.63 14.3412 30.5926C14.359 30.5552 14.368 30.5137 14.3673 30.4717C14.3666 30.4297 14.3562 30.3885 14.3372 30.3519L13.0229 27.5502C12.9782 27.4532 12.9096 27.3712 12.8246 27.3133C12.7396 27.2553 12.6414 27.2236 12.5409 27.2217Z" fill="#455A64"/>
<path d="M12.4507 27.395H11.0952C11.0563 27.3948 11.018 27.4053 10.984 27.4256C10.9499 27.4459 10.9213 27.4754 10.9009 27.511C10.8805 27.5467 10.8689 27.5875 10.8674 27.6294C10.8658 27.6713 10.8743 27.7129 10.892 27.7502L12.2227 30.5489C12.2488 30.6032 12.2882 30.6487 12.3366 30.6805C12.3851 30.7124 12.4407 30.7293 12.4974 30.7295H14.1316C14.1541 30.7285 14.1759 30.7215 14.1953 30.7093C14.2147 30.6971 14.231 30.6799 14.2428 30.6593C14.2546 30.6387 14.2615 30.6153 14.263 30.5912C14.2644 30.567 14.2604 30.5428 14.2511 30.5208L12.9355 27.7206C12.891 27.6229 12.822 27.5406 12.7363 27.483C12.6506 27.4255 12.5517 27.395 12.4507 27.395Z" fill="#263238"/>
<path d="M12.3357 28.564L11.5117 28.9192L11.3359 29.6355L11.7328 30.7011L13.1844 30.932L12.7587 30.4628L12.8123 30.0528C12.8123 30.0528 13.2243 29.9152 13.2243 29.8486C13.2243 29.782 13.1735 29.5526 13.1117 29.5452C12.9491 29.5852 12.7897 29.6392 12.6351 29.7065C12.6351 29.7065 13.1391 29.2758 13.1254 29.2063C13.1117 29.1367 13.0567 28.9606 12.9565 28.9399C12.8562 28.9192 12.0405 29.335 12.0405 29.335L11.9031 29.6592L11.7878 29.1397C11.7878 29.1397 12.5143 28.9206 12.3357 28.564Z" fill="#B78876"/>
<path d="M12.4405 30.2452C12.4405 30.2452 12.4199 30.2156 12.4116 30.1564C12.4029 30.081 12.4109 30.0045 12.4347 29.933C12.4586 29.8615 12.4977 29.7971 12.549 29.745C12.5902 29.7065 12.6217 29.6932 12.6245 29.6976C12.5618 29.7724 12.5104 29.8573 12.472 29.9492C12.4476 30.0456 12.4369 30.1454 12.4405 30.2452Z" fill="#AA6550"/>
<path d="M12.0469 30.09C12.063 30.0135 12.074 29.9358 12.0798 29.8576C12.0832 29.7702 12.097 29.6837 12.121 29.6001C12.1367 29.5464 12.1641 29.4976 12.2009 29.4577C12.2377 29.4178 12.2828 29.388 12.3325 29.3707C12.5289 29.2937 12.7074 29.2316 12.8365 29.1857C12.9056 29.1576 12.9768 29.1363 13.0494 29.1221C12.9855 29.1614 12.9178 29.1931 12.8475 29.2168C12.7198 29.2701 12.5413 29.3382 12.3476 29.4136C12.3024 29.4304 12.2612 29.4577 12.2268 29.4935C12.1963 29.5284 12.1729 29.5697 12.1581 29.6149C12.133 29.6949 12.1168 29.7779 12.11 29.8621C12.1074 29.9426 12.0856 30.0211 12.0469 30.09Z" fill="#AA6550"/>
<path d="M11.8575 29.9303C11.8444 29.8724 11.8444 29.812 11.8575 29.7542C11.8727 29.6595 11.8935 29.5855 11.906 29.5869C11.919 29.6448 11.919 29.7052 11.906 29.7631C11.8908 29.8578 11.87 29.9318 11.8575 29.9303Z" fill="#AA6550"/>
<path d="M11.8359 27.935C11.8359 27.9719 11.8461 28.008 11.8651 28.0386C11.8841 28.0693 11.9111 28.0932 11.9428 28.1073C11.9744 28.1214 12.0092 28.1251 12.0427 28.1179C12.0763 28.1107 12.1071 28.093 12.1313 28.0669C12.1555 28.0408 12.172 28.0076 12.1787 27.9714C12.1854 27.9352 12.1819 27.8977 12.1689 27.8637C12.1558 27.8296 12.1336 27.8005 12.1051 27.78C12.0767 27.7595 12.0432 27.7485 12.009 27.7485C11.9862 27.7483 11.9636 27.753 11.9425 27.7623C11.9215 27.7716 11.9023 27.7854 11.8862 27.8027C11.8701 27.8201 11.8574 27.8407 11.8487 27.8634C11.8401 27.8861 11.8358 27.9105 11.8359 27.935Z" fill="#FAFAFA"/>
<path d="M7.08599 56.1453C7.30109 56.2171 7.50052 56.335 7.67232 56.492C7.84412 56.6489 7.98475 56.8415 8.08577 57.0584C8.28598 57.4942 8.39076 57.9737 8.39203 58.46C8.41949 59.3954 8.05968 60.4018 7.63532 61.2202C6.82368 60.6578 6.49957 59.496 6.36773 58.904C6.16173 57.9598 6.31967 56.1186 7.08599 56.1438" fill="#407BFF"/>
<path d="M8.67682 62.6113C8.59221 62.3556 8.57178 62.0804 8.61761 61.8135C8.66343 61.5466 8.77387 61.2974 8.93775 61.0913C9.105 60.8885 9.30811 60.7237 9.5352 60.6065C9.7623 60.4894 10.0088 60.4222 10.2603 60.409C10.491 60.3913 10.7492 60.4238 10.9071 60.6074C10.9765 60.6977 11.0223 60.8064 11.0397 60.9222C11.057 61.038 11.0454 61.1566 11.006 61.266C10.9239 61.4837 10.7898 61.6742 10.6173 61.818C10.0502 62.339 9.41292 62.7297 8.67682 62.6113Z" fill="#407BFF"/>
<path d="M8.13749 65.5816C8.13125 65.5177 8.13125 65.4532 8.13749 65.3892C8.13749 65.2516 8.14848 65.0755 8.15534 64.8638C8.16072 64.2808 8.25347 63.7026 8.43001 63.1515C8.61462 62.5993 8.93219 62.1099 9.35014 61.7336C9.47698 61.6231 9.61523 61.5288 9.76214 61.4524C9.81433 61.4243 9.85828 61.411 9.88574 61.3977C9.91321 61.3843 9.92969 61.3814 9.93106 61.3843C9.59224 61.5649 9.29006 61.8162 9.04205 62.1236C8.79404 62.431 8.60515 62.7884 8.48632 63.1751C8.31446 63.7208 8.21866 64.2909 8.20204 64.8668C8.1883 65.0873 8.17594 65.2664 8.16496 65.3907C8.1607 65.4551 8.15151 65.5189 8.13749 65.5816Z" fill="#263238"/>
<path d="M7.08082 57.5586C7.08904 57.5852 7.09546 57.6124 7.10004 57.64C7.11195 57.7012 7.12705 57.7796 7.14536 57.8753C7.18382 58.0796 7.236 58.377 7.29643 58.7441C7.41866 59.4841 7.5711 60.4979 7.72079 61.6256C7.87048 62.7534 7.98172 63.7776 8.05314 64.5205C8.08884 64.892 8.11494 65.1924 8.13142 65.4011C8.13783 65.4998 8.14332 65.5797 8.1479 65.6409C8.15184 65.6683 8.15184 65.6963 8.1479 65.7238C8.14104 65.6966 8.13645 65.6689 8.13416 65.6409C8.1273 65.5802 8.11768 65.5018 8.10532 65.4026C8.0806 65.188 8.04764 64.8905 8.00644 64.5264C7.92404 63.7864 7.80456 62.7623 7.65762 61.6345C7.51067 60.5068 7.36235 59.4959 7.25248 58.7559C7.19755 58.3933 7.1536 58.0973 7.11515 57.8827C7.10142 57.785 7.09043 57.7066 7.08082 57.6459C7.07723 57.6169 7.07723 57.5876 7.08082 57.5586Z" fill="#263238"/>
<path d="M7.50753 63.3679C7.34597 62.8238 7.06652 62.329 6.6923 61.9244C6.31808 61.5199 5.85985 61.2171 5.35552 61.0413C5.09733 60.954 4.77323 60.9229 4.60019 61.1464C4.42715 61.3699 4.52053 61.7103 4.65375 61.9633C4.94028 62.4862 5.36415 62.9058 5.87182 63.1692C6.3795 63.4326 6.94821 63.528 7.50616 63.4433" fill="#407BFF"/>
<path d="M5.58408 61.8965C5.63932 61.9069 5.69356 61.9228 5.74613 61.9438C5.80927 61.9639 5.87119 61.9881 5.93153 62.0164C6.00295 62.0504 6.08672 62.08 6.17187 62.1303C6.26599 62.1799 6.35766 62.2348 6.44653 62.2946C6.55113 62.3625 6.65244 62.4361 6.75004 62.5151C7.19946 62.8789 7.55964 63.3554 7.79927 63.9034C7.85133 64.0224 7.89718 64.1444 7.9366 64.2689C7.97271 64.3763 8.00252 64.4861 8.02587 64.5975C8.0472 64.6892 8.06371 64.782 8.07531 64.8757C8.08724 64.9457 8.09504 65.0164 8.09865 65.0874C8.10433 65.1474 8.10525 65.2078 8.1014 65.2679C8.08629 65.2679 8.07668 65.0089 7.97917 64.6078C7.95319 64.4991 7.92202 64.3919 7.88579 64.2867C7.84638 64.1646 7.80053 64.045 7.74845 63.9285C7.62666 63.6655 7.47886 63.4174 7.30761 63.1885C7.1315 62.9605 6.93356 62.7531 6.71708 62.5699C6.62224 62.491 6.52368 62.4174 6.42181 62.3494C6.33319 62.2873 6.2415 62.2305 6.14715 62.1792C5.81068 61.9823 5.57859 61.9098 5.58408 61.8965Z" fill="#263238"/>
</svg>
