<svg width="24" height="22" viewBox="0 0 24 22" fill="none" xmlns="http://www.w3.org/2000/svg">
<path d="M12.9491 14.3545L10.1782 11.6163L10.2109 11.5836C12.1091 9.46719 13.4618 7.03448 14.2582 4.45991H17.4546V2.27266H9.81819V0.0908203H7.63635V2.27266H0V4.44355H12.1854C11.4491 6.54899 10.2982 8.54536 8.72725 10.2908C7.7127 9.16175 6.87268 7.93448 6.20724 6.63628H4.02546C4.8218 8.41444 5.91275 10.0945 7.27635 11.6108L1.72908 17.0926L3.27273 18.6363L8.7273 13.1817L12.12 16.5745L12.9491 14.3545ZM19.0909 8.81812H16.9091L12 21.909H14.1818L15.4091 18.6363H20.5909L21.8182 21.909H24L19.0909 8.81812ZM16.2273 16.4545L18 11.7254L19.7728 16.4545H16.2273Z" fill="#2204AE"/>
</svg>
