<svg xmlns="http://www.w3.org/2000/svg" width="42.25" height="42.25" viewBox="0 0 42.25 42.25">
  <g id="svgexport-20_55_" data-name="svgexport-20 (55)" transform="translate(-1.25 -1.25)" opacity="0.3">
    <g id="Group_76906" data-name="Group 76906" transform="translate(1.25 1.25)">
      <path id="Path_25127" data-name="Path 25127" d="M11.654,16.058a5.4,5.4,0,1,1,5.4-5.4A5.4,5.4,0,0,1,11.654,16.058Zm0-7.86a2.456,2.456,0,1,0,2.456,2.456A2.456,2.456,0,0,0,11.654,8.2Z" transform="translate(3.576 2.61)"/>
      <path id="Path_25128" data-name="Path 25128" d="M28.27,43.5H16.48C5.809,43.5,1.25,38.941,1.25,28.27V16.48C1.25,5.809,5.809,1.25,16.48,1.25h7.86a1.474,1.474,0,1,1,0,2.948H16.48C7.42,4.2,4.2,7.42,4.2,16.48V28.27C4.2,37.33,7.42,40.552,16.48,40.552H28.27c9.059,0,12.282-3.223,12.282-12.282V18.445a1.474,1.474,0,1,1,2.948,0V28.27C43.5,38.941,38.941,43.5,28.27,43.5Z" transform="translate(-1.25 -1.25)"/>
      <path id="Path_25129" data-name="Path 25129" d="M18.724,15.983a1.485,1.485,0,0,1-1.474-1.474V2.718a1.456,1.456,0,0,1,.9-1.356,1.524,1.524,0,0,1,1.611.314l3.93,3.93A1.473,1.473,0,0,1,21.613,7.69L20.2,6.275v8.234A1.485,1.485,0,0,1,18.724,15.983Z" transform="translate(14.192 -1.244)"/>
      <path id="Path_25130" data-name="Path 25130" d="M29.585,8.125a1.458,1.458,0,0,1-1.042-.432,1.482,1.482,0,0,1,0-2.083l3.93-3.93a1.473,1.473,0,0,1,2.083,2.083l-3.93,3.93A1.458,1.458,0,0,1,29.585,8.125ZM3.39,37.5a1.476,1.476,0,0,1-.825-2.692l9.688-6.5a5.9,5.9,0,0,1,6.976.373l.648.57a2.9,2.9,0,0,0,3.616,0l8.175-7.015a5.868,5.868,0,0,1,7.467,0l3.2,2.751a1.477,1.477,0,1,1-1.926,2.24l-3.2-2.751a2.9,2.9,0,0,0-3.616,0l-8.175,7.015a5.868,5.868,0,0,1-7.467,0l-.648-.57a2.923,2.923,0,0,0-3.4-.157l-9.668,6.5a1.72,1.72,0,0,1-.845.236Z" transform="translate(-0.599 -1.248)"/>
    </g>
  </g>
</svg>
