<svg width="24" height="24" viewBox="0 0 24 24" fill="none" xmlns="http://www.w3.org/2000/svg">
<g clip-path="url(#clip0_195_1833)">
<path fill-rule="evenodd" clip-rule="evenodd" d="M14.4216 21.8076C14.4216 20.9781 13.7491 20.3056 12.9196 20.3056H11.0804C10.6821 20.3056 10.3 20.4639 10.0184 20.7456C9.73668 21.0272 9.57844 21.4093 9.57844 21.8076C9.57844 22.6371 10.2509 23.3096 11.0804 23.3096H12.9196C13.7491 23.3096 14.4216 22.6371 14.4216 21.8076ZM3.15755 17.9347C3.40842 17.9538 3.71194 17.9649 4.01681 17.947C4.20791 18.9159 4.72944 19.7885 5.49235 20.4157C6.25526 21.0428 7.21223 21.3857 8.19984 21.3857H8.77294C8.72203 21.6647 8.7219 21.9505 8.77256 22.2295H8.19984C6.98613 22.2295 5.81209 21.7973 4.88811 21.0103C3.96414 20.2232 3.35064 19.1329 3.15755 17.9347ZM2.72836 17.0369C1.96555 16.9083 1.27297 16.5136 0.773512 15.9228C0.27405 15.3321 3.8064e-06 14.5836 0 13.81L0 11.8158C0 10.9479 0.344767 10.1155 0.958458 9.50184C1.57215 8.88814 2.40449 8.54336 3.27239 8.54335H3.49022C3.83841 4.14854 7.51538 0.69043 12 0.69043C16.4846 0.69043 20.1616 4.14854 20.5098 8.54335H20.7276C21.5955 8.54336 22.4279 8.88814 23.0415 9.50184C23.6552 10.1155 24 10.9479 24 11.8158V13.81C24 14.6779 23.6552 15.5102 23.0415 16.1239C22.4279 16.7376 21.5955 17.0824 20.7276 17.0824H19.7619C19.3614 17.0824 19.0368 16.7577 19.0368 16.3573V9.22721C19.0368 5.3409 15.8863 2.19043 12 2.19043C8.11369 2.19043 4.96322 5.3409 4.96322 9.22721V16.3573C4.96322 16.64 4.80136 16.885 4.5652 17.0046C3.91514 17.2302 2.907 17.067 2.72836 17.0369Z" fill="#EE2B2B"/>
</g>
<defs>
<clipPath id="clip0_195_1833">
<rect width="24" height="24" fill="white"/>
</clipPath>
</defs>
</svg>
