<?xml version="1.0" standalone="no"?>
<!DOCTYPE svg PUBLIC "-//W3C//DTD SVG 20010904//EN"
 "http://www.w3.org/TR/2001/REC-SVG-20010904/DTD/svg10.dtd">
<svg version="1.0" xmlns="http://www.w3.org/2000/svg"
 width="512.000000pt" height="512.000000pt" viewBox="0 0 512.000000 512.000000"
 preserveAspectRatio="xMidYMid meet">

<g transform="translate(0.000000,512.000000) scale(0.100000,-0.100000)"
fill="#000000" stroke="none">
<path d="M645 4899 c-157 -23 -289 -87 -405 -196 -271 -254 -318 -647 -115
-953 41 -62 136 -160 200 -208 l30 -22 -30 -22 c-16 -12 -61 -52 -98 -88 -258
-246 -301 -640 -102 -940 41 -62 136 -160 200 -208 l30 -22 -30 -22 c-69 -51
-170 -158 -210 -223 -54 -86 -79 -149 -99 -248 -79 -381 159 -763 541 -869 75
-21 99 -22 663 -26 414 -2 596 0 623 8 25 7 45 22 57 43 24 39 25 68 4 108
-30 59 -28 59 -657 59 -475 0 -583 3 -630 15 -177 46 -324 183 -378 354 -29
91 -29 231 0 322 49 153 166 276 326 340 l60 24 1042 5 1042 5 30 29 c26 25
31 37 31 76 0 39 -5 51 -31 76 l-30 29 -1042 5 c-936 4 -1046 7 -1083 21 -132
54 -221 124 -286 223 -109 169 -109 403 0 572 70 107 162 177 286 219 l75 25
1703 -2 1703 -3 60 -22 c324 -123 452 -505 266 -797 -17 -28 -31 -63 -31 -78
0 -82 79 -131 155 -96 48 22 130 179 159 305 20 91 21 233 0 326 -35 159 -148
337 -272 427 -34 24 -62 47 -62 50 0 3 27 26 61 50 84 61 162 158 214 265 53
110 75 205 75 325 0 378 -278 693 -652 740 -102 12 -3304 12 -3393 -1z m3480
-236 c254 -96 400 -364 340 -622 -41 -172 -172 -320 -340 -384 l-60 -22 -1690
-3 c-1160 -1 -1706 1 -1741 8 -177 37 -340 185 -395 359 -29 91 -29 231 0 322
53 168 199 306 374 354 44 12 314 14 1752 12 l1700 -2 60 -22z"/>
<path d="M885 4471 c-92 -24 -173 -90 -215 -176 -19 -41 -24 -66 -24 -135 -1
-78 2 -90 33 -148 38 -70 70 -100 145 -140 43 -22 64 -26 136 -26 72 0 93 4
136 26 75 40 107 70 145 140 31 58 34 70 33 148 0 72 -4 93 -26 136 -39 75
-70 107 -137 143 -65 34 -164 49 -226 32z m120 -217 c31 -14 65 -64 65 -94 0
-7 -7 -27 -16 -45 -19 -41 -73 -69 -114 -60 -37 8 -77 48 -85 85 -9 40 19 95
58 114 40 20 51 20 92 0z"/>
<path d="M1922 4462 c-66 -24 -118 -65 -159 -126 -43 -63 -56 -116 -51 -201 8
-116 71 -211 176 -262 48 -24 69 -28 137 -28 105 1 167 27 234 101 114 125
114 303 0 428 -85 94 -221 129 -337 88z m142 -206 c93 -39 87 -164 -8 -196
-64 -21 -136 33 -136 100 0 36 30 81 63 95 40 18 41 18 81 1z"/>
<path d="M885 3191 c-92 -24 -173 -90 -215 -176 -19 -41 -24 -66 -24 -135 -1
-78 2 -90 33 -148 38 -70 70 -100 145 -140 43 -22 64 -26 136 -26 72 0 93 4
136 26 75 40 107 70 145 140 31 58 34 70 33 148 0 72 -4 93 -26 136 -39 75
-70 107 -137 143 -65 34 -164 49 -226 32z m120 -217 c31 -14 65 -64 65 -94 0
-7 -7 -27 -16 -45 -19 -41 -73 -69 -114 -60 -37 8 -77 48 -85 85 -9 40 19 95
58 114 40 20 51 20 92 0z"/>
<path d="M1922 3182 c-66 -24 -118 -65 -159 -126 -43 -63 -56 -116 -51 -201 8
-116 71 -211 176 -262 48 -24 69 -28 137 -28 105 1 167 27 234 101 114 125
114 303 0 428 -85 94 -221 129 -337 88z m142 -206 c93 -39 87 -164 -8 -196
-64 -21 -136 33 -136 100 0 36 30 81 63 95 40 18 41 18 81 1z"/>
<path d="M3523 2542 c-59 -21 -112 -59 -147 -105 -21 -29 -1188 -1934 -1215
-1986 -7 -11 -16 -46 -22 -76 -26 -143 61 -299 197 -351 47 -18 94 -19 1299
-19 l1250 0 63 34 c35 19 74 48 88 64 72 85 101 212 71 304 -22 67 -1208 2007
-1259 2060 -79 81 -218 113 -325 75z m163 -217 c23 -15 1210 -1951 1220 -1989
3 -14 -1 -39 -11 -59 -34 -71 49 -67 -1264 -67 -1273 0 -1228 -2 -1265 51 -40
57 -54 32 583 1074 510 836 603 983 632 998 36 18 68 16 105 -8z"/>
<path d="M3585 1911 c-11 -5 -29 -19 -40 -31 -19 -21 -20 -38 -23 -481 -3
-513 -4 -507 65 -535 43 -19 93 -5 123 33 19 25 20 40 20 484 0 334 -3 465
-12 484 -20 45 -82 66 -133 46z"/>
<path d="M3590 633 c-30 -11 -60 -47 -66 -81 -19 -99 105 -164 177 -93 78 79
-7 212 -111 174z"/>
<path d="M885 1911 c-92 -24 -173 -90 -215 -176 -19 -41 -24 -66 -24 -135 -1
-78 2 -90 33 -148 38 -70 70 -100 145 -140 43 -22 64 -26 136 -26 72 0 93 4
136 26 75 40 107 70 145 140 31 58 34 70 33 148 0 72 -4 93 -26 136 -39 75
-70 107 -137 143 -65 34 -164 49 -226 32z m120 -217 c31 -14 65 -64 65 -94 0
-7 -7 -27 -16 -45 -19 -41 -73 -69 -114 -60 -37 8 -77 48 -85 85 -9 40 19 95
58 114 40 20 51 20 92 0z"/>
<path d="M1922 1902 c-66 -24 -118 -65 -159 -126 -43 -63 -56 -116 -51 -201 8
-116 71 -211 176 -262 48 -24 69 -28 137 -28 105 1 167 27 234 101 114 125
114 303 0 428 -85 94 -221 129 -337 88z m142 -206 c93 -39 87 -164 -8 -196
-64 -21 -136 33 -136 100 0 36 30 81 63 95 40 18 41 18 81 1z"/>
</g>
</svg>
