<?xml version="1.0" standalone="no"?>
<!DOCTYPE svg PUBLIC "-//W3C//DTD SVG 20010904//EN"
 "http://www.w3.org/TR/2001/REC-SVG-20010904/DTD/svg10.dtd">
<svg version="1.0" xmlns="http://www.w3.org/2000/svg"
 width="512.000000pt" height="512.000000pt" viewBox="0 0 512.000000 512.000000"
 preserveAspectRatio="xMidYMid meet">

<g transform="translate(0.000000,512.000000) scale(0.100000,-0.100000)"
fill="#000000" stroke="none">
<path d="M2330 5109 c-584 -55 -1122 -303 -1549 -714 -333 -320 -591 -765
-700 -1205 -180 -731 -50 -1466 367 -2075 255 -373 583 -657 987 -855 282
-139 550 -217 858 -251 103 -11 110 -11 135 8 19 14 28 31 30 55 5 56 -25 73
-155 87 -449 50 -877 225 -1235 507 -114 89 -346 328 -432 444 -433 582 -584
1303 -420 2000 82 352 262 709 501 998 321 387 798 680 1293 796 697 164 1417
13 2000 -420 130 -96 382 -347 476 -474 268 -359 427 -758 475 -1193 14 -130
31 -160 87 -155 24 2 41 11 55 30 19 25 19 32 8 135 -35 314 -123 611 -265
890 -319 628 -875 1090 -1560 1297 -289 88 -652 124 -956 95z"/>
<path d="M2345 4759 c-1054 -108 -1888 -950 -1985 -2004 -50 -548 111 -1100
453 -1549 315 -414 816 -723 1327 -820 201 -39 501 -50 680 -26 722 94 1331
503 1673 1120 211 380 303 785 276 1214 -44 704 -413 1333 -1012 1724 -243
158 -569 282 -867 327 -127 19 -422 27 -545 14z m406 -149 c309 -30 620 -134
886 -296 387 -234 703 -620 861 -1050 88 -239 123 -441 123 -704 0 -249 -30
-443 -102 -654 -257 -748 -891 -1276 -1674 -1391 -130 -19 -410 -22 -535 -5
-459 61 -877 267 -1200 590 -616 615 -781 1538 -416 2323 170 367 465 693 818
905 364 220 819 323 1239 282z"/>
<path d="M1890 3441 c-76 -23 -154 -92 -189 -167 -27 -57 -30 -148 -6 -195 10
-19 126 -143 258 -276 l241 -243 -241 -242 c-132 -134 -249 -259 -259 -278
-11 -22 -18 -55 -17 -90 2 -133 119 -261 252 -277 92 -11 105 -2 378 270 l253
251 252 -250 c275 -273 287 -282 380 -271 90 11 194 91 237 182 23 50 28 142
10 178 -6 12 -124 136 -262 275 l-252 252 252 253 c138 138 256 262 262 274
18 36 13 128 -10 178 -43 91 -147 171 -237 182 -93 11 -105 2 -380 -271 l-253
-250 -247 246 c-162 162 -260 253 -284 263 -39 16 -96 18 -138 6z m359 -415
c151 -151 285 -277 298 -281 13 -3 33 0 46 6 12 6 144 133 293 281 308 307
289 296 371 214 74 -74 81 -63 -232 -376 -253 -253 -275 -279 -275 -310 0 -31
22 -57 275 -310 313 -313 306 -302 232 -376 -82 -82 -63 -93 -371 214 -149
148 -281 275 -293 281 -13 6 -33 9 -46 6 -13 -4 -147 -130 -298 -281 -156
-156 -282 -274 -292 -274 -47 0 -112 56 -127 110 l-10 34 280 281 c254 256
280 285 280 315 0 30 -26 59 -280 315 l-280 281 10 33 c15 54 79 111 125 111
13 0 117 -97 294 -274z"/>
<path d="M5021 2449 c-38 -15 -49 -38 -56 -119 -65 -721 -484 -1403 -1106
-1803 -311 -199 -671 -328 -1029 -367 -138 -15 -160 -27 -160 -87 0 -23 8 -38
27 -53 25 -19 36 -21 98 -15 478 43 935 223 1330 524 126 96 359 327 455 451
202 263 343 533 434 834 69 227 121 554 96 601 -10 18 -52 48 -63 44 -1 0 -13
-5 -26 -10z"/>
</g>
</svg>
