<?xml version="1.0" standalone="no"?>
<!DOCTYPE svg PUBLIC "-//W3C//DTD SVG 20010904//EN"
 "http://www.w3.org/TR/2001/REC-SVG-20010904/DTD/svg10.dtd">
<svg version="1.0" xmlns="http://www.w3.org/2000/svg"
 width="512.000000pt" height="512.000000pt" viewBox="0 0 512.000000 512.000000"
 preserveAspectRatio="xMidYMid meet">

<g transform="translate(0.000000,512.000000) scale(0.100000,-0.100000)"
fill="#000000" stroke="none">
<path d="M2380 5114 c-910 -83 -1680 -668 -1994 -1515 -41 -111 -88 -293 -112
-429 -22 -129 -30 -469 -14 -613 47 -439 230 -876 511 -1224 35 -43 117 -131
183 -196 l119 -118 -28 -72 c-45 -115 -121 -264 -190 -369 -81 -124 -93 -146
-106 -207 -12 -55 1 -142 28 -195 25 -48 95 -116 148 -144 42 -22 63 -27 130
-26 71 0 92 5 185 43 291 119 580 277 815 445 l51 36 79 -14 c44 -8 119 -17
167 -21 84 -7 87 -7 112 18 30 30 33 66 8 97 -15 18 -36 24 -127 36 -61 8
-134 19 -164 24 -105 19 -118 16 -216 -56 -139 -101 -304 -200 -488 -291 -181
-91 -381 -173 -419 -173 -34 0 -109 41 -131 71 -25 35 -35 86 -25 131 4 21 40
86 79 145 115 173 268 515 255 566 -3 13 -49 63 -103 112 -231 208 -392 419
-518 680 -146 301 -204 545 -212 895 -7 300 23 501 114 764 161 468 505 888
946 1155 644 389 1489 398 2152 23 600 -339 995 -919 1096 -1607 15 -107 22
-133 40 -147 50 -42 119 -4 119 65 0 21 -7 83 -15 140 -104 694 -526 1311
-1140 1667 -245 142 -524 240 -815 285 -101 15 -427 27 -520 19z"/>
<path d="M2425 4734 c-501 -53 -900 -238 -1232 -571 -467 -470 -658 -1127
-518 -1783 93 -435 371 -861 747 -1141 60 -45 77 -71 78 -114 0 -35 -67 -239
-130 -393 -23 -58 -39 -110 -35 -121 9 -29 43 -54 73 -53 48 1 303 154 473
284 135 103 124 101 304 62 160 -34 463 -44 631 -21 784 111 1422 674 1619
1432 44 171 58 287 59 480 1 310 -64 596 -194 856 -328 655 -969 1065 -1695
1083 -77 2 -158 2 -180 0z m410 -170 c517 -77 988 -395 1262 -854 215 -360
297 -805 222 -1220 -130 -726 -689 -1294 -1420 -1442 -100 -20 -142 -23 -339
-23 -206 1 -236 3 -352 28 -213 45 -250 38 -403 -80 -98 -75 -235 -167 -235
-156 0 3 18 62 40 129 71 219 52 297 -100 413 -140 106 -334 309 -422 441
-165 249 -255 486 -294 775 -19 140 -14 387 10 525 111 643 569 1182 1182
1389 278 94 555 119 849 75z"/>
<path d="M2455 4003 c-261 -32 -466 -158 -557 -341 -43 -88 -50 -194 -18 -270
38 -88 127 -148 235 -159 43 -5 63 -1 108 20 46 21 65 39 112 102 75 101 112
119 234 113 99 -5 143 -23 167 -70 20 -39 14 -94 -16 -144 -13 -19 -73 -78
-135 -129 -62 -51 -135 -119 -163 -150 -97 -110 -148 -241 -159 -412 -10 -159
23 -264 99 -311 79 -49 248 -47 335 3 67 40 84 79 98 221 15 153 32 184 153
287 262 224 372 410 372 632 0 263 -161 467 -447 566 -108 37 -301 57 -418 42z
m215 -154 c225 -28 387 -125 463 -279 30 -61 32 -71 32 -170 -1 -89 -4 -114
-26 -165 -51 -124 -104 -187 -336 -405 -119 -112 -142 -158 -154 -312 -7 -93
-12 -116 -28 -129 -26 -22 -105 -31 -152 -19 -52 14 -64 52 -56 179 11 185 63
286 212 411 132 110 217 198 245 255 20 41 25 64 25 130 0 123 -43 187 -160
242 -56 26 -69 28 -185 28 -118 0 -128 -2 -183 -29 -56 -29 -89 -60 -170 -159
-42 -51 -63 -57 -121 -33 -46 19 -66 52 -66 106 0 131 141 272 322 325 112 32
216 40 338 24z"/>
<path d="M2435 2157 c-94 -31 -158 -85 -202 -170 -24 -45 -28 -64 -28 -142 0
-77 4 -98 26 -145 102 -214 381 -252 539 -73 177 202 41 525 -228 539 -39 2
-84 -2 -107 -9z m193 -174 c117 -94 88 -267 -54 -313 -107 -36 -224 52 -224
167 0 75 40 139 105 169 49 23 128 13 173 -23z"/>
<path d="M4755 2697 c-24 -20 -28 -34 -41 -139 -60 -487 -257 -902 -598 -1256
-346 -359 -776 -578 -1273 -647 -93 -13 -111 -18 -130 -40 -26 -29 -28 -43
-12 -79 19 -41 51 -45 189 -25 827 120 1522 669 1829 1446 84 214 150 507 151
670 0 44 -4 55 -26 72 -34 27 -57 26 -89 -2z"/>
</g>
</svg>
