<?xml version="1.0" standalone="no"?>
<!DOCTYPE svg PUBLIC "-//W3C//DTD SVG 20010904//EN"
 "http://www.w3.org/TR/2001/REC-SVG-20010904/DTD/svg10.dtd">
<svg version="1.0" xmlns="http://www.w3.org/2000/svg"
 width="512.000000pt" height="512.000000pt" viewBox="0 0 512.000000 512.000000"
 preserveAspectRatio="xMidYMid meet">

<g transform="translate(0.000000,512.000000) scale(0.100000,-0.100000)"
fill="#000000" stroke="none">
<path d="M3315 4946 c-298 -50 -543 -179 -740 -388 -323 -343 -431 -820 -288
-1272 54 -171 159 -347 292 -488 l74 -78 -28 -78 c-37 -101 -115 -267 -170
-363 -25 -41 -45 -83 -45 -92 0 -24 48 -22 162 7 169 43 328 121 454 224 l61
50 87 -23 c240 -65 498 -57 734 22 385 128 693 442 816 832 74 236 74 526 0
762 -124 392 -434 708 -819 834 -41 13 -110 32 -153 40 -105 23 -335 28 -437
11z m694 -491 c31 -15 41 -33 41 -69 0 -18 -852 -1425 -891 -1473 -33 -39
-110 -18 -130 35 -13 34 -11 39 105 226 75 123 92 158 92 190 0 35 6 45 56 90
37 34 80 90 127 169 39 64 71 119 71 120 0 2 -26 0 -59 -4 -115 -16 -218 -63
-306 -141 -37 -32 -56 -42 -83 -42 -43 0 -72 32 -72 79 0 41 54 97 155 160
117 73 316 126 422 111 l41 -5 62 100 c34 55 59 104 55 107 -4 4 -88 7 -188 7
-169 -1 -188 -3 -270 -28 -143 -44 -307 -136 -377 -212 -54 -58 -107 -69 -145
-30 -54 53 -25 108 108 208 124 93 255 157 407 198 109 30 354 37 474 15 48
-10 89 -16 90 -14 2 2 27 43 56 91 53 87 89 127 117 127 8 0 27 -7 42 -15z
m135 -372 c87 -62 154 -124 167 -154 21 -52 -21 -109 -81 -109 -10 0 -45 23
-77 51 -32 28 -81 67 -110 86 -79 53 -91 115 -31 158 31 22 69 13 132 -32z
m-243 -294 c23 -11 65 -44 95 -73 56 -54 68 -91 41 -127 -15 -19 -50 -39 -70
-39 -13 0 -102 65 -169 124 -36 31 -38 77 -3 111 29 30 53 31 106 4z m-189
-328 c53 -34 68 -56 68 -100 0 -41 -31 -71 -74 -71 -25 0 -48 11 -85 40 -46
36 -51 45 -51 80 0 30 6 43 26 59 36 28 62 26 116 -8z m-152 -266 c83 -43 78
-170 -8 -211 -90 -43 -193 46 -162 140 24 74 101 106 170 71z"/>
<path d="M1337 3986 c-100 -37 -167 -112 -187 -213 -20 -93 9 -183 81 -253
l40 -38 -496 -1651 c-272 -908 -495 -1661 -495 -1674 0 -48 61 -74 94 -41 9 8
25 46 37 84 13 44 27 71 37 74 10 2 312 77 672 166 360 89 769 190 907 225
l253 63 14 -47 c120 -404 163 -538 178 -553 24 -24 53 -23 79 3 15 15 20 29
16 48 -3 14 -227 763 -497 1665 l-492 1639 41 41 c56 58 81 117 81 196 0 107
-59 203 -155 252 -51 27 -156 34 -208 14z m174 -695 c17 -57 29 -104 27 -106
-2 -1 -41 22 -87 52 l-84 55 54 54 c29 29 54 52 56 50 2 -1 17 -49 34 -105z
m-85 -180 c106 -68 107 -69 83 -84 -153 -95 -301 -175 -297 -160 30 112 94
313 100 313 4 0 55 -31 114 -69z m253 -382 c35 -115 61 -212 59 -214 -2 -2
-115 45 -252 105 l-249 108 179 106 c99 58 184 106 190 106 6 0 39 -95 73
-211z m-226 -225 c111 -48 205 -90 209 -94 4 -3 -139 -56 -319 -118 -179 -62
-328 -110 -331 -108 -2 3 26 106 63 230 l68 225 54 -24 c30 -14 145 -63 256
-111z m430 -453 c43 -145 77 -265 75 -267 -5 -5 -848 289 -848 296 0 7 673
239 685 236 5 -1 44 -121 88 -265z m-506 -197 c511 -179 475 -166 471 -170 -6
-5 -1080 -315 -1083 -312 -1 2 33 120 76 263 43 143 86 284 94 313 9 28 17 52
20 52 2 0 192 -66 422 -146z m643 -257 c0 -2 47 -161 105 -352 57 -192 103
-350 102 -352 -2 -1 -232 65 -512 146 -281 82 -576 168 -657 192 -82 23 -148
45 -148 49 0 6 1064 318 1093 319 9 1 17 -1 17 -2z m-600 -597 c360 -105 656
-193 658 -194 2 -2 -355 -93 -793 -201 -438 -109 -799 -195 -802 -191 -3 3 40
160 97 348 56 189 109 365 117 392 13 45 16 48 41 43 15 -3 322 -92 682 -197z"/>
</g>
</svg>
