<?xml version="1.0" standalone="no"?>
<!DOCTYPE svg PUBLIC "-//W3C//DTD SVG 20010904//EN"
 "http://www.w3.org/TR/2001/REC-SVG-20010904/DTD/svg10.dtd">
<svg version="1.0" xmlns="http://www.w3.org/2000/svg"
 width="512.000000pt" height="512.000000pt" viewBox="0 0 512.000000 512.000000"
 preserveAspectRatio="xMidYMid meet">

<g transform="translate(0.000000,512.000000) scale(0.100000,-0.100000)"
fill="#000000" stroke="none">
<path d="M2287 4945 c-551 -67 -1032 -300 -1423 -690 -560 -558 -807 -1351
-663 -2130 99 -538 381 -1029 793 -1382 351 -300 758 -486 1228 -559 156 -25
507 -25 669 -1 1073 160 1890 977 2046 2046 18 128 24 452 10 585 -7 63 -14
84 -33 102 -32 32 -77 32 -111 -2 -23 -23 -25 -31 -19 -77 51 -445 -30 -903
-231 -1295 -448 -876 -1420 -1357 -2391 -1182 -856 154 -1551 800 -1767 1643
-61 240 -83 480 -65 716 54 705 415 1321 1001 1710 265 176 565 291 904 347
152 25 494 26 652 1 154 -25 322 -69 450 -118 60 -23 118 -43 130 -46 40 -9
73 6 89 41 33 69 -12 106 -211 174 -339 116 -719 158 -1058 117z"/>
<path d="M4296 4524 c-140 -34 -109 -5 -1096 -991 -558 -556 -923 -913 -934
-913 -11 0 -111 91 -240 218 -197 195 -229 223 -298 256 -309 153 -672 -39
-721 -379 -15 -100 2 -196 49 -295 35 -71 60 -98 473 -511 471 -471 484 -481
622 -514 81 -19 147 -19 228 0 147 35 89 -18 1317 1209 1103 1102 1133 1133
1168 1206 47 99 64 195 49 295 -42 295 -328 489 -617 419z m270 -184 c73 -36
127 -91 162 -169 21 -45 26 -71 26 -136 1 -153 89 -54 -1167 -1312 -1263
-1264 -1166 -1178 -1322 -1178 -145 0 -139 -5 -622 477 -483 482 -478 476
-478 623 0 67 5 90 28 141 35 76 94 135 172 171 50 23 73 28 140 28 133 0 161
-18 415 -269 118 -118 231 -222 250 -232 46 -23 143 -23 190 0 19 10 445 427
945 926 620 619 923 915 952 929 100 50 209 50 309 1z"/>
</g>
</svg>
