<?xml version="1.0" standalone="no"?>
<!DOCTYPE svg PUBLIC "-//W3C//DTD SVG 20010904//EN"
 "http://www.w3.org/TR/2001/REC-SVG-20010904/DTD/svg10.dtd">
<svg version="1.0" xmlns="http://www.w3.org/2000/svg"
 width="512.000000pt" height="512.000000pt" viewBox="0 0 512.000000 512.000000"
 preserveAspectRatio="xMidYMid meet">

<g transform="translate(0.000000,512.000000) scale(0.100000,-0.100000)"
fill="#000000" stroke="none">
<path d="M2325 5109 c-498 -46 -991 -248 -1381 -565 -114 -92 -291 -271 -385
-389 -223 -278 -391 -617 -480 -966 -56 -222 -72 -360 -73 -619 -1 -239 6
-321 45 -515 98 -489 344 -947 700 -1304 904 -903 2329 -1002 3354 -232 126
95 343 306 445 432 231 287 400 625 491 982 124 486 96 1033 -76 1503 -53 145
-183 404 -265 527 -279 421 -673 754 -1120 945 -400 172 -829 241 -1255 201z
m575 -184 c252 -38 473 -107 705 -220 259 -126 464 -274 667 -483 354 -365
577 -818 654 -1327 25 -168 25 -504 0 -670 -90 -590 -381 -1113 -830 -1494
-266 -226 -637 -413 -986 -495 -197 -47 -319 -60 -550 -60 -393 0 -696 69
-1045 239 -484 235 -864 615 -1101 1100 -111 229 -181 454 -221 715 -24 161
-24 500 1 665 39 256 109 482 226 720 187 384 478 712 842 949 322 210 714
343 1118 380 91 8 418 -4 520 -19z"/>
<path d="M2400 4774 c-560 -52 -1023 -265 -1406 -648 -348 -348 -555 -759
-631 -1256 -24 -157 -24 -463 0 -620 39 -251 108 -472 217 -685 68 -135 182
-314 236 -372 38 -41 80 -44 120 -9 46 39 39 77 -35 179 -188 258 -315 572
-367 902 -23 149 -23 441 0 590 78 502 329 952 705 1267 300 250 638 403 1031
464 144 23 438 22 585 0 330 -52 644 -179 902 -367 102 -74 140 -81 179 -35
35 40 32 82 -9 120 -58 54 -237 168 -372 236 -211 107 -440 180 -675 215 -104
15 -394 27 -480 19z"/>
<path d="M2450 4340 c-93 -22 -201 -91 -261 -165 -17 -22 -45 -68 -61 -102
-57 -120 -57 -108 11 -956 36 -438 68 -788 76 -815 44 -145 191 -252 345 -252
156 0 303 108 345 255 8 29 40 371 76 815 52 642 60 775 51 828 -31 184 -184
350 -362 391 -53 12 -170 13 -220 1z m208 -175 c97 -29 186 -135 207 -245 3
-19 -21 -377 -55 -795 -68 -845 -63 -817 -142 -871 -35 -25 -51 -29 -108 -29
-55 0 -73 4 -107 27 -80 52 -75 25 -143 874 -64 811 -64 807 -20 893 27 54
113 128 169 145 61 19 136 19 199 1z"/>
<path d="M4184 3936 c-47 -39 -39 -76 38 -184 257 -357 382 -747 382 -1192 0
-331 -69 -630 -211 -914 -566 -1130 -2010 -1484 -3032 -743 -65 46 -93 61
-119 61 -64 0 -104 -78 -66 -132 20 -29 245 -178 364 -240 559 -294 1246 -329
1839 -92 1207 481 1745 1894 1162 3054 -68 135 -182 314 -237 373 -38 41 -80
44 -120 9z"/>
<path d="M2435 1773 c-216 -78 -336 -280 -291 -491 28 -136 115 -244 244 -305
62 -30 75 -32 173 -32 101 0 108 1 180 37 125 62 207 166 235 299 41 192 -59
385 -242 471 -86 40 -219 49 -299 21z m230 -177 c56 -25 110 -81 132 -135 20
-46 20 -146 0 -192 -20 -49 -73 -106 -121 -132 -32 -17 -58 -22 -116 -22 -88
0 -137 22 -190 81 -46 52 -63 99 -63 169 0 70 17 117 64 170 72 82 195 108
294 61z"/>
</g>
</svg>
